<?xml version="1.0" encoding="UTF-8" standalone="no"?>
<!-- Created with Inkscape (http://www.inkscape.org/) -->

<svg
   width="215.93352mm"
   height="78.058937mm"
   viewBox="0 0 215.93352 78.058937"
   version="1.1"
   id="svg1"
   xml:space="preserve"
   xmlns:inkscape="http://www.inkscape.org/namespaces/inkscape"
   xmlns:sodipodi="http://sodipodi.sourceforge.net/DTD/sodipodi-0.dtd"
   xmlns="http://www.w3.org/2000/svg"
   xmlns:svg="http://www.w3.org/2000/svg"><sodipodi:namedview
     id="namedview1"
     pagecolor="#ffffff"
     bordercolor="#000000"
     borderopacity="0.25"
     inkscape:showpageshadow="2"
     inkscape:pageopacity="0.0"
     inkscape:pagecheckerboard="0"
     inkscape:deskcolor="#d1d1d1"
     inkscape:document-units="mm" /><defs
     id="defs1" /><g
     inkscape:label="Capa 1"
     inkscape:groupmode="layer"
     id="layer1"
     transform="translate(8.8621815,-191.09647)"><path
       style="fill:#b25335;fill-opacity:1"
       d="m -8.8621815,268.22246 v -0.92604 H 88.893051 c 84.974809,0 97.736119,0.0498 97.609029,0.381 -0.49193,1.28197 -4.08135,1.6835 -6.05489,0.67733 -1.27714,-0.65112 -1.19063,-0.66073 -1.19063,0.13229 v 0.66146 H 85.197188 -8.8621815 Z m 197.8067015,0.20192 c 0.0961,-0.4021 0.22488,-0.82038 0.28611,-0.92953 0.0612,-0.10914 4.10044,-0.19843 8.97602,-0.19843 h 8.86469 l -0.0829,0.85989 -0.0829,0.8599 -9.06789,0.0696 -9.0679,0.0696 z m -96.624744,-7.36543 c -0.26138,-1.39329 0.25902,-1.77586 1.056,-0.77634 0.53689,0.67331 0.68094,0.73194 1.04864,0.42677 0.70647,-0.58632 0.90611,-2.05824 0.91398,-6.73838 l 0.007,-4.46188 -0.77487,-0.29248 c -1.30604,-0.49298 -0.87428,-0.70612 1.40794,-0.69505 2.03719,0.01 2.13667,0.0357 1.49112,0.38651 l -0.69169,0.37592 -0.12514,4.70672 c -0.13885,5.22245 -0.27529,5.73099 -1.92675,7.18098 -0.52182,0.45817 -1.23688,0.83303 -1.58903,0.83303 -0.52479,0 -0.67226,-0.17057 -0.81769,-0.9458 z m 15.411094,0.76941 c -0.27877,-0.27877 -0.20516,-1.94028 0.0859,-1.94028 0.14429,0 0.41106,0.23813 0.59282,0.52917 0.47467,0.76007 1.18439,0.65202 1.65159,-0.25144 0.31926,-0.61738 0.40367,-1.80648 0.40367,-5.6863 0,-4.61915 -0.0309,-4.925 -0.52917,-5.23616 -0.89027,-0.55599 -0.60354,-0.73235 1.19063,-0.73235 1.8324,0 2.03155,0.14462 1.19062,0.86465 -0.48775,0.41763 -0.52916,0.78051 -0.52916,4.63706 0,3.99126 -0.0322,4.24851 -0.6982,5.58507 -0.8696,1.74506 -2.65714,2.93219 -3.35875,2.23058 z M 12.833651,260.94943 C 2.8178871,260.29857 -3.3725218,255.69632 -4.8175286,247.8267 c -0.381016,-2.07504 -0.3814634,-2.51083 -0.00494,-4.81479 0.5862121,-3.58708 2.1571079,-6.69207 4.62602046,-9.14368 2.76909684,-2.74969 4.46957384,-3.78356 10.38426814,-6.31347 5.673063,-2.42655 8.218872,-4.30905 8.604055,-6.36225 0.346664,-1.84788 -0.09861,-2.75366 -4.609769,-9.37736 -2.843613,-4.17524 -4.8455203,-8.0771 -4.8901483,-9.53125 -0.04949,-1.61249 0.623651,-1.40654 2.5203783,0.77112 0.925527,1.06261 2.548174,2.81854 3.605882,3.90207 1.688868,1.73009 1.970311,1.92284 2.310659,1.5825 0.52579,-0.52579 0.20198,-1.64047 -1.64689,-5.66921 -2.640896,-5.7546 -3.132872,-7.39848 -2.30883,-7.7147 0.634791,-0.24359 1.421484,0.67739 3.29383,3.85608 2.824154,4.79458 4.871574,7.81565 5.360606,7.90983 0.964211,0.18569 0.532991,-2.95645 -1.209574,-8.81371 -1.336132,-4.49113 -1.696276,-6.39705 -1.286267,-6.80706 0.23425,-0.23425 0.451852,-0.24726 0.780538,-0.0466 0.698527,0.42632 2.47536,4.14923 3.857094,8.08158 1.379211,3.92517 2.607333,6.31275 3.247148,6.31275 0.377945,0 0.400585,-0.69001 0.225664,-6.87775 -0.199915,-7.07189 -0.135202,-7.67433 0.824351,-7.67433 0.880104,0 1.808558,3.46485 2.760253,10.30084 0.312645,2.24572 0.809719,4.86509 1.104608,5.82083 0.585794,1.89857 2.216783,4.5928 2.691024,4.44531 0.163723,-0.0509 0.971548,-1.37622 1.795165,-2.94513 1.764891,-3.36193 2.448375,-4.18366 3.388584,-4.07399 0.653073,0.0762 0.669582,0.12883 0.646782,2.06256 -0.04401,3.73247 -1.712836,8.27902 -4.620427,12.58788 -1.83778,2.72347 -3.404055,4.26269 -6.176698,6.06999 -4.275453,2.78688 -7.737959,4.09563 -14.679299,5.54843 -2.528756,0.52926 -5.355484,1.23734 -6.2816183,1.57351 -3.771285,1.3689 -6.487371,3.70564 -8.089182,6.95938 -0.76466704,1.55326 -0.86887204,2.01794 -0.85391604,3.80791 0.01452,1.73809 0.14171,2.292 0.86245004,3.75603 1.68717,3.42713 5.793226,6.23101 10.5237713,7.18631 1.886284,0.38092 4.103937,0.42095 18.25625,0.32954 13.471212,-0.087 16.390772,-0.17204 17.828941,-0.51932 5.7252,-1.38245 10.558533,-4.77155 11.907857,-8.3497 1.145976,-3.03891 0.491413,-5.85627 -1.908474,-8.21444 -2.835074,-2.78578 -6.431816,-4.3438 -12.674855,-5.49045 -2.908986,-0.53429 -11.197494,-0.83092 -11.457608,-0.41005 -0.254534,0.41185 -0.576794,3.77879 -1.228157,12.83166 -0.547963,7.6158 -0.798938,9.2498 -1.337934,8.71081 -0.189089,-0.18909 -0.20673,-3.99442 -0.05631,-12.14777 l 0.219028,-11.87243 7.408333,0.0469 c 8.074308,0.0511 10.833085,0.34409 14.725638,1.56389 5.671538,1.77728 10.150888,5.48227 12.148702,10.04853 0.809658,1.85057 0.997365,5.55852 0.388331,7.67106 -1.765229,6.123 -8.207406,10.67798 -17.260501,12.20413 -2.17191,0.36614 -5.068556,0.44631 -17.807378,0.4929 -8.367448,0.0306 -16.58276,-0.0333 -18.256249,-0.14209 z m 63.091846,-2.72372 c -1.426767,-1.22726 -1.07205,-4.47123 0.671576,-6.14173 0.614437,-0.58866 1.098025,-0.77646 2.244261,-0.87151 l 1.461063,-0.12116 v -1.05034 c 0,-0.83484 -0.11079,-1.07932 -0.539986,-1.19155 -0.785057,-0.2053 -0.518189,-0.60614 0.681539,-1.02368 0.576989,-0.20081 1.078838,-0.3669 1.115218,-0.36909 0.03638,-0.002 0.06615,2.2582 0.06615,5.0231 0,4.20062 0.06268,5.02708 0.38126,5.02708 0.665826,0 0.732908,0.52118 0.09768,0.75892 -1.866118,0.69841 -1.801859,0.72611 -1.801859,-0.77677 v -1.37643 l -0.585974,0.76329 c -1.550059,2.01909 -2.584627,2.38748 -3.790926,1.34987 z m 3.324665,-1.56194 c 0.746426,-0.81723 1.21977,-2.46899 1.011472,-3.5296 -0.05034,-0.25633 -0.411368,-0.70461 -0.802282,-0.99619 -0.628834,-0.46904 -0.805396,-0.49094 -1.531892,-0.19001 -1.149072,0.47596 -1.593813,1.23627 -1.593813,2.72471 0,2.69898 1.398151,3.65349 2.916515,1.99109 z m 5.578759,1.71185 c -1.136175,-0.55968 -1.954964,-2.2572 -1.712899,-3.55119 0.388972,-2.07931 1.85787,-3.6676 3.391899,-3.6676 1.044376,0 2.231694,0.71659 2.418135,1.45943 0.322365,1.28441 0.0471,1.45099 -2.397647,1.45099 -2.532427,0 -2.653563,0.12685 -1.882786,1.97158 0.671944,1.60819 2.431372,1.96709 3.838557,0.78303 0.548884,-0.46186 0.81405,-0.56417 0.81405,-0.31409 0,0.77891 -2.191356,2.33646 -3.25837,2.31596 -0.172428,-0.003 -0.71735,-0.20496 -1.210939,-0.44811 z m 2.881809,-5.23441 c 0,-0.5462 -0.95778,-1.45704 -1.521354,-1.44679 -0.592411,0.0108 -1.216865,0.49204 -1.619737,1.24835 -0.313738,0.58898 -0.298721,0.59531 1.41199,0.59531 1.36059,0 1.729101,-0.0846 1.729101,-0.39687 z m 13.59078,5.19663 c -1.545564,-0.97148 -1.684534,-1.39876 -1.684534,-5.17942 0,-3.42855 -0.002,-3.43837 -0.7276,-4.03265 l -0.7276,-0.59574 h 2.116664 2.11667 l -0.72761,0.59574 c -0.70963,0.58102 -0.72756,0.6641 -0.72612,3.36392 0.002,4.45932 0.56045,5.54631 2.84754,5.54631 2.23862,0 2.88887,-1.43285 2.62886,-5.79282 -0.12988,-2.17798 -0.22974,-2.59348 -0.69805,-2.90456 -0.92318,-0.6132 -0.61921,-0.82762 1.17329,-0.82762 0.94589,0 1.7198,0.0702 1.7198,0.15603 0,0.0858 -0.25658,0.36378 -0.57016,0.61771 -0.4954,0.40115 -0.59871,0.85774 -0.78785,3.482 -0.28179,3.90964 -0.36958,4.25723 -1.30041,5.14903 -1.04665,1.00275 -3.39077,1.21539 -4.65289,0.42207 z m 15.24881,0.0285 c -1.52082,-0.75973 -1.8512,-1.77906 -1.85168,-5.7129 -3.8e-4,-3.17551 -0.0351,-3.40728 -0.52957,-3.53659 -1.17268,-0.30666 -0.41205,-0.60535 1.52135,-0.59741 1.83706,0.008 1.99841,0.0479 1.54998,0.38733 -0.2753,0.2084 -0.60289,0.41303 -0.72798,0.45473 -0.12508,0.0417 -0.25703,1.64368 -0.2932,3.55997 -0.0636,3.36757 -0.0443,3.50702 0.57603,4.16746 1.28779,1.37105 3.74517,1.332 4.49627,-0.0714 0.35619,-0.66555 0.37799,-6.37767 0.0278,-7.29861 -0.14191,-0.37328 -0.43957,-0.67868 -0.66145,-0.67868 -0.22189,0 -0.40343,-0.11907 -0.40343,-0.26459 0,-0.14925 0.74966,-0.26458 1.71979,-0.26458 0.94589,0 1.7198,0.0702 1.7198,0.15603 0,0.0858 -0.23483,0.3537 -0.52184,0.59531 -0.44637,0.37575 -0.5544,0.94726 -0.74696,3.95153 -0.24115,3.76245 -0.53393,4.5629 -1.93171,5.28125 -0.91753,0.47154 -2.86911,0.40779 -3.94324,-0.1288 z m 10.19134,0.24896 c -0.0446,-0.0452 0.21734,-0.38058 0.58204,-0.74528 0.5977,-0.59769 0.65161,-0.82444 0.54663,-2.29907 -0.1004,-1.41034 -0.30881,-1.94614 -1.51114,-3.88493 -0.76707,-1.23693 -1.56146,-2.34417 -1.76532,-2.46054 -0.73633,-0.42035 -0.34432,-0.71446 0.95228,-0.71446 1.14285,0 1.32292,0.0714 1.32292,0.52479 0,0.57544 1.86458,4.50229 2.13782,4.50229 0.26739,0 1.83093,-3.06405 1.83093,-3.58807 0,-0.25922 -0.19705,-0.68904 -0.43789,-0.95516 -0.4197,-0.46377 -0.37028,-0.48385 1.19063,-0.48385 1.53939,0 2.10813,0.2885 1.23174,0.62481 -0.54432,0.20887 -2.97575,3.98278 -3.3261,5.16255 -0.15672,0.52773 -0.24639,1.55483 -0.19927,2.28243 0.0738,1.13935 0.16828,1.33465 0.68099,1.40747 0.32742,0.0465 0.59531,0.18556 0.59531,0.30901 0,0.20516 -3.64453,0.50764 -3.83157,0.31801 z M 12.664252,245.88033 c -3.5810719,-0.83791 -5.5696699,-2.16635 -5.0964939,-3.40461 0.288148,-0.75406 3.3815099,-2.23167 5.6627679,-2.70494 2.523147,-0.52345 7.827262,-0.40307 10.227233,0.23211 2.059805,0.54516 4.541312,1.65215 4.8602,2.16812 0.342444,0.55408 -0.149352,1.54105 -1.043142,2.09345 -0.498054,0.30781 -1.778176,0.86505 -2.844714,1.23831 -2.703116,0.94602 -8.536361,1.1332 -11.765851,0.37756 z m 2.68294,-2.92473 c 0,-1.36634 -0.09246,-1.8518 -0.352792,-1.85228 -0.495406,-9.2e-4 -4.522532,1.01688 -5.4100909,1.36732 -0.676809,0.26722 -0.698021,0.31641 -0.264584,0.61355 0.7522009,0.51565 4.3588829,1.62564 5.4982999,1.69215 0.4817,0.0281 0.529167,-0.1352 0.529167,-1.82074 z m 8.466666,1.16443 c 3.866798,-0.93984 3.663255,-1.59414 -0.809712,-2.60285 -1.009866,-0.22774 -2.074246,-0.4685 -2.365288,-0.53502 -0.480948,-0.10993 -0.529746,0.0166 -0.535525,1.38884 -0.0035,0.83039 -0.111815,1.73452 -0.240705,2.00919 -0.218356,0.46533 -0.145708,0.48665 1.064692,0.31255 0.714471,-0.10278 2.013413,-0.3605 2.886538,-0.57271 z m 19.059805,1.45367 c -3.10396,-2.72531 -0.01818,-7.67022 3.688756,-5.91117 3.365486,1.59703 2.239587,6.7318 -1.476078,6.7318 -1.052051,0 -1.443291,-0.1451 -2.212678,-0.82063 z m 33.297738,-5.86918 c -1.193431,-1.0937 -1.473433,-2.73364 -0.777758,-4.55524 0.768212,-2.01153 2.096343,-2.64818 4.081107,-1.95628 0.936635,0.32651 1.356814,0.92703 1.356814,1.93915 0,0.72909 0.131648,0.70239 -3.643537,0.73887 -1.034923,0.01 -1.212627,0.23413 -0.989845,1.24845 0.425235,1.93608 2.45851,2.74513 3.950176,1.57178 0.936098,-0.73633 1.213511,-0.42013 0.397617,0.45322 -1.533789,1.6418 -2.990653,1.82832 -4.374574,0.56005 z m 3.337246,-4.82897 c 0,-0.45827 -0.656228,-1.10191 -1.346992,-1.32115 -0.378811,-0.12023 -0.749073,0.0123 -1.189059,0.42566 -0.971713,0.91288 -0.812506,1.26164 0.617822,1.35342 1.518163,0.0974 1.918229,0.002 1.918229,-0.45793 z m 54.636463,5.28187 c -1.96333,-1.02111 -2.77813,-2.35443 -2.77813,-4.54606 0,-2.59178 1.74582,-4.77519 4.26026,-5.32809 2.07757,-0.45684 4.23048,0.23609 5.2199,1.68006 1.96147,2.86257 0.19182,7.37457 -3.26245,8.31813 -1.46168,0.39926 -2.5058,0.36161 -3.43958,-0.12404 z m 5.20034,-1.71173 c 0.8924,-0.93811 1.01736,-1.22663 1.01736,-2.34894 0,-1.70694 -0.54018,-2.90551 -1.83788,-4.0779 -0.90504,-0.81765 -1.26337,-0.97035 -2.27706,-0.97035 -1.56513,0 -2.58865,0.55082 -3.12542,1.68198 -0.92253,1.94408 -0.25682,4.72835 1.45255,6.07519 0.71518,0.5635 1.17781,0.70421 2.32305,0.70656 1.32828,0.003 1.50242,-0.0732 2.4474,-1.06654 z m 14.51111,1.94248 c -2.42068,-0.87558 -3.43958,-2.20504 -3.43958,-4.48796 0,-4.48676 4.06584,-7.09147 7.96468,-5.10243 3.52073,1.79614 2.63697,7.67524 -1.40774,9.36481 -0.97106,0.40563 -2.34475,0.50504 -3.11736,0.22558 z m 3.91139,-1.28594 c 0.92008,-0.64445 1.38037,-1.80461 1.37929,-3.47653 -0.002,-2.65903 -1.73344,-4.5772 -4.1323,-4.5772 -2.17651,0 -3.27504,1.2416 -3.27504,3.70157 0,1.92883 1.23257,4.06161 2.64583,4.57824 0.83673,0.30587 2.81118,0.17389 3.38222,-0.22608 z m 14.21257,1.03163 c -2.65851,-1.40153 -3.55815,-4.27149 -2.18281,-6.96344 0.91675,-1.79435 2.26651,-2.72696 4.14321,-2.86271 1.98325,-0.14345 3.23082,0.27357 4.23295,1.41493 1.43288,1.63195 1.61931,3.57191 0.54547,5.67586 -1.32569,2.59738 -4.5319,3.89882 -6.73882,2.73536 z m 5.05354,-1.51828 c 0.83557,-0.83556 0.89928,-1.01914 0.89523,-2.57968 -0.008,-2.9525 -1.72505,-4.9874 -4.20923,-4.9874 -2.10982,0 -3.19808,1.28159 -3.19039,3.75717 0.008,2.7073 1.83419,4.7095 4.29456,4.7095 1.13731,0 1.42899,-0.11874 2.20983,-0.89959 z m 5.92264,1.36261 c -1.65485,-0.83879 -2.24493,-1.96892 -2.24493,-4.29948 0,-2.20626 0.51249,-3.26092 2.21595,-4.56019 1.00163,-0.76397 1.32499,-0.86377 2.79863,-0.86377 0.91638,0 2.03822,0.0744 2.49297,0.16536 0.77279,0.15456 0.82683,0.24 0.82683,1.30731 0,1.42122 -0.35976,1.69176 -0.80863,0.60809 -0.37689,-0.90991 -1.57631,-1.55159 -2.90018,-1.55159 -3.51706,0 -4.65152,5.32384 -1.68877,7.92517 1.07499,0.94385 1.99441,1.02388 3.21476,0.27981 0.65378,-0.39861 0.8599,-0.70928 0.8599,-1.29604 0,-0.62382 -0.15597,-0.82613 -0.8136,-1.05538 -1.29421,-0.45117 -0.72218,-0.70167 1.37901,-0.60389 1.64514,0.0766 1.87053,0.14139 1.48125,0.42604 -0.35471,0.25937 -0.45916,0.72896 -0.45916,2.06421 0,1.29234 -0.10014,1.76689 -0.39688,1.88076 -0.25726,0.0987 -0.3983,-0.008 -0.40092,-0.30242 -0.01,-1.10313 -0.40447,-1.18104 -1.72865,-0.34127 -1.52727,0.96857 -2.26297,1.01033 -3.82758,0.21728 z m -100.80222,0.0944 c 0,-0.12995 0.178594,-0.30481 0.396875,-0.38857 0.317625,-0.12188 0.396875,-0.70255 0.396875,-2.90787 0,-2.6288 -0.02718,-2.76267 -0.590749,-2.91005 -0.790027,-0.2066 -0.348255,-0.58739 0.949492,-0.81843 l 1.020201,-0.18163 -0.09416,1.17426 c -0.0674,0.84053 -0.003,1.13926 0.226498,1.05113 0.176362,-0.0677 0.391759,-0.34713 0.47866,-0.62094 0.237072,-0.74694 1.423956,-1.56996 2.26407,-1.56996 1.244894,0 1.566821,0.79402 1.566821,3.86447 0,2.50881 0.03713,2.69811 0.555788,2.83374 0.991355,0.25925 0.256039,0.69016 -1.080552,0.63323 -0.821296,-0.035 -1.207999,-0.14802 -1.049363,-0.30675 0.138166,-0.13824 0.251211,-1.46496 0.251211,-2.94825 0,-2.25608 -0.07096,-2.72414 -0.434149,-2.8635 -0.717234,-0.27523 -1.320942,0.0697 -2.049821,1.17109 -0.555807,0.83988 -0.69103,1.36082 -0.69103,2.66215 0,1.39543 0.07278,1.63698 0.529166,1.75633 1.062176,0.27776 0.489075,0.60583 -1.058333,0.60583 -0.873125,0 -1.5875,-0.10633 -1.5875,-0.23628 z m 11.906246,-0.019 c 0,-0.1404 0.21678,-0.37129 0.48174,-0.51309 0.52034,-0.27847 0.64308,-0.54058 2.67581,-5.71392 0.74332,-1.89178 1.45987,-3.61197 1.59234,-3.82266 0.29781,-0.4737 0.31671,-0.43089 2.212394,5.01328 1.19764,3.43946 1.54346,4.16507 2.1437,4.49792 0.67167,0.37246 0.74726,0.35845 1.22882,-0.22775 0.45481,-0.55365 0.51312,-1.05522 0.51312,-4.41394 0,-3.55695 -0.0324,-3.79962 -0.52917,-3.95727 -0.96793,-0.30721 -0.5466,-0.66146 0.78672,-0.66146 1.27165,0 1.34507,0.0423 2.1837,1.25677 2.25478,3.26541 4.32017,5.84597 4.51943,5.64671 0.12103,-0.12102 0.13425,-1.38895 0.0294,-2.81762 -0.16514,-2.24975 -0.27391,-2.6747 -0.81224,-3.17362 -0.34187,-0.31682 -0.62157,-0.65169 -0.62157,-0.74414 0,-0.22126 2.47432,-0.21731 3.05332,0.005 0.40481,0.15535 0.39278,0.21671 -0.118,0.602 -0.52905,0.39906 -0.58037,0.73795 -0.73511,4.8541 -0.11026,2.9329 -0.26392,4.42226 -0.45568,4.41669 -0.15913,-0.005 -0.85224,-0.80829 -1.54025,-1.78593 -0.68801,-0.97765 -2.05722,-2.83471 -3.0427,-4.12681 l -1.79179,-2.34928 -0.0796,2.74615 c -0.10194,3.51723 0.0621,4.40902 0.87933,4.78139 0.35139,0.16011 0.57407,0.39597 0.49485,0.52415 -0.15298,0.24753 -6.71854,0.19067 -6.71854,-0.0582 0,-0.0805 0.12398,-0.27039 0.27551,-0.42192 0.19094,-0.19095 0.12785,-0.67411 -0.20557,-1.57427 l -0.481064,-1.29877 -1.52212,-0.0796 c -1.51727,-0.0793 -1.52335,-0.0766 -1.9111,0.85139 -0.54183,1.29677 -0.4951,2.02811 0.14018,2.19424 1.06217,0.27776 0.48907,0.60583 -1.05834,0.60583 -0.87312,0 -1.5875,-0.11488 -1.5875,-0.25528 z m 5.5524,-4.30879 c -0.003,-0.28101 -0.39423,-1.55854 -0.9514,-3.10885 -0.14659,-0.40788 -0.56403,0.38877 -1.28244,2.4474 l -0.34625,0.99218 h 1.29197 c 0.85924,0 1.29068,-0.11077 1.28812,-0.33073 z m 16.672604,4.31731 c 0,-0.13571 0.22666,-0.31869 0.50368,-0.40661 0.44051,-0.13981 0.52634,-0.53193 0.68447,-3.12668 0.0994,-1.63176 0.14068,-3.50261 0.0916,-4.15745 -0.0886,-1.1834 -0.0956,-1.19108 -1.1475,-1.26445 -1.01324,-0.0707 -1.08042,-0.0256 -1.57697,1.05833 l -0.51865,1.13216 -0.0925,-1.2893 c -0.10284,-1.4335 0.067,-2.13371 0.45892,-1.89151 0.1424,0.088 1.75589,0.21054 3.58552,0.27229 2.75124,0.0928 3.35235,0.0452 3.47543,-0.27554 0.35043,-0.91321 0.64081,-0.2659 0.56785,1.26583 -0.0851,1.78656 -0.40937,2.12495 -0.824,0.8599 -0.32166,-0.9814 -0.60861,-1.18143 -1.70217,-1.18658 l -0.85989,-0.004 v 4.10671 4.10672 l 0.66145,0.30138 c 1.13711,0.5181 0.73344,0.74561 -1.32291,0.74561 -1.09141,0 -1.98438,-0.11104 -1.98438,-0.24676 z m 6.35,-0.011 c 0,-0.11534 0.23813,-0.27198 0.52917,-0.34809 0.50133,-0.1311 0.52917,-0.3609 0.52917,-4.36818 0,-3.59196 -0.0624,-4.25373 -0.41365,-4.38853 -0.96758,-0.37129 0.0811,-0.69163 2.26412,-0.69163 2.70521,0 3.5938,0.25852 4.00719,1.1658 0.43146,0.94696 0.0598,1.99921 -1.0937,3.09651 l -1.01662,0.96708 1.15356,1.71955 c 0.63446,0.94576 1.45818,1.95917 1.83049,2.25203 0.8997,0.70771 0.85517,0.8532 -0.26113,0.8532 -1.10517,0 -1.80525,-0.6094 -2.89919,-2.5237 -0.85795,-1.50133 -1.4377,-2.2388 -1.76,-2.2388 -0.12297,0 -0.22357,0.94135 -0.22357,2.09189 0,1.96164 0.0329,2.08328 0.52916,1.95352 0.36546,-0.0956 0.52917,-0.008 0.52917,0.28268 0,0.34657 -0.32764,0.41799 -1.85208,0.40372 -1.01865,-0.01 -1.85209,-0.11171 -1.85209,-0.22705 z m 4.6892,-5.4984 c 0.70653,-0.45739 1.0342,-1.90383 0.6106,-2.69533 -0.36572,-0.68335 -1.32903,-1.09371 -2.0964,-0.89304 -0.50769,0.13277 -0.55756,0.33283 -0.55756,2.23666 v 2.09085 l 0.7276,-0.17919 c 0.40018,-0.0986 0.99227,-0.35053 1.31576,-0.55995 z m 15.41913,5.52213 c 0,-0.0923 0.23813,-0.31658 0.52917,-0.49834 0.49191,-0.3072 0.52917,-0.61702 0.52917,-4.40059 v -4.07011 l -0.67228,-0.16874 c -0.36976,-0.0928 -0.60085,-0.2843 -0.51355,-0.42555 0.21809,-0.35288 4.88056,-0.32483 5.91443,0.0356 1.44185,0.50264 1.7515,1.78463 0.8021,3.3208 -0.66871,1.082 -1.73622,1.67846 -3.00402,1.67846 h -0.93918 v 1.95569 c 0,1.90366 0.019,1.96046 0.7138,2.13484 1.13667,0.28529 0.25409,0.60582 -1.66809,0.60582 -0.93035,0 -1.69155,-0.0755 -1.69155,-0.16786 z m 4.85911,-5.60603 c 0.52939,-0.41641 0.69617,-0.78251 0.69309,-1.52135 -0.005,-1.23286 -0.23894,-1.59247 -1.20517,-1.85362 -1.68984,-0.45671 -2.11536,0.12044 -1.82169,2.47086 0.17043,1.36413 0.22573,1.45248 0.90905,1.45248 0.40017,0 1.0413,-0.24677 1.42472,-0.54837 z m 14.57999,5.31947 c 0.32664,-0.36094 0.40465,-1.24055 0.40465,-4.56264 0,-3.89298 -0.0286,-4.12297 -0.52916,-4.25387 -0.29104,-0.0761 -0.52917,-0.26859 -0.52917,-0.42774 0,-0.18162 0.68374,-0.28935 1.83647,-0.28935 1.87336,0 2.69421,0.37805 1.48164,0.68238 l -0.67228,0.16874 v 4.21847 4.21848 l 1.38535,-0.08 c 1.32729,-0.0766 1.41127,-0.1271 2.0042,-1.20445 0.77189,-1.40257 1.19389,-1.46127 0.95104,-0.1323 -0.41938,2.29495 -0.26437,2.2043 -3.68343,2.15416 -2.84902,-0.0418 -3.02681,-0.0748 -2.64931,-0.49191 z m 28.87127,0.29467 c -0.0768,-0.12424 0.15431,-0.35981 0.51355,-0.52349 0.6522,-0.29716 0.65317,-0.30345 0.65317,-4.26271 0,-3.83564 -0.0194,-3.97613 -0.59532,-4.30243 -0.54546,-0.30906 -0.46238,-0.35032 0.99219,-0.49276 0.87313,-0.0855 1.62941,-0.12419 1.68063,-0.086 0.0512,0.0382 -0.0976,0.34179 -0.33073,0.67462 -0.34068,0.4864 -0.42386,1.34602 -0.42386,4.38049 0,3.4888 0.0402,3.80043 0.52917,4.10582 0.29104,0.18176 0.52917,0.42089 0.52917,0.53141 0,0.27807 -3.37536,0.25433 -3.54797,-0.025 z m 4.07713,-0.0294 c 0,-0.1404 0.2114,-0.36841 0.46978,-0.50669 0.54979,-0.29424 1.46319,-2.20128 2.99328,-6.24949 0.60502,-1.60073 1.24666,-3.06745 1.42586,-3.25939 0.26224,-0.28085 0.51707,0.20976 1.30561,2.51354 1.88343,5.50262 2.45299,6.81562 3.10506,7.15809 0.71653,0.37633 0.62713,0.40518 -1.41794,0.45761 -1.20823,0.031 -1.45418,-0.0298 -1.22723,-0.30327 0.29034,-0.34984 0.16909,-1.2298 -0.35046,-2.54335 -0.28102,-0.71048 -0.35538,-0.73624 -1.90912,-0.66146 l -1.61671,0.0778 -0.36998,1.16964 c -0.35042,1.10784 -0.33994,1.19396 0.19844,1.62991 0.31263,0.25315 0.56841,0.53049 0.56841,0.6163 0,0.0858 -0.71437,0.15603 -1.5875,0.15603 -0.87312,0 -1.5875,-0.11488 -1.5875,-0.25528 z m 5.73309,-4.44108 c -0.0822,-0.25466 -0.37226,-1.10591 -0.64457,-1.89166 l -0.49512,-1.42864 -0.53886,1.16406 c -0.29637,0.64023 -0.61778,1.49148 -0.71424,1.89166 -0.17405,0.72207 -0.16504,0.7276 1.18344,0.7276 1.17465,0 1.33856,-0.0627 1.20935,-0.46302 z m -8.90809,-6.48702 c 0,-0.5405 1.32766,-2.33867 1.60169,-2.16931 0.46897,0.28984 0.25203,1.08128 -0.49169,1.79381 -0.81826,0.78395 -1.11,0.88264 -1.11,0.3755 z m -42.47984,-7.22153 c -1.59882,-0.40596 -3.16998,-1.96886 -3.44317,-3.42507 -0.26828,-1.43007 0.29447,-3.56821 1.24155,-4.71718 1.25132,-1.51806 2.62891,-2.1053 4.63858,-1.97734 1.85301,0.11799 2.73808,0.60778 3.72882,2.06347 1.16271,1.70838 0.66436,4.7647 -1.07174,6.57285 -1.51577,1.57867 -3.00756,2.01304 -5.09404,1.48327 z m 4.36073,-1.47782 c 1.96575,-1.83138 1.2211,-6.03506 -1.29372,-7.30321 -2.24213,-1.13064 -4.09152,-0.51293 -4.91426,1.64141 -0.40671,1.06495 -0.42522,1.41054 -0.14307,2.6713 0.7698,3.43985 4.15685,5.0347 6.35105,2.9905 z m -76.508699,1.08079 c -1.316457,-0.69504 -2.053437,-2.16098 -2.053437,-4.08452 0,-1.77439 0.628093,-3.1393 1.99818,-4.34226 1.257412,-1.10402 1.940547,-1.34707 3.773731,-1.34267 2.505025,0.006 2.694755,0.11971 2.694755,1.61475 0,1.46734 -0.245113,1.64195 -0.738919,0.52636 -0.38441,-0.86844 -1.450147,-1.40389 -2.794256,-1.40389 -2.0457,0 -3.364962,1.32807 -3.551296,3.57502 -0.227036,2.73775 1.411167,4.94123 3.675352,4.94357 2.146748,0.002 3.235066,-2.21327 1.358598,-2.7657 -1.363514,-0.40142 -1.014306,-0.62431 1.125095,-0.71813 1.880994,-0.0825 2.467808,0.0675 1.586884,0.4055 -0.304166,0.11672 -0.396874,0.61778 -0.396874,2.14498 0,1.59488 -0.07923,1.99268 -0.396875,1.99268 -0.218282,0 -0.396875,-0.16402 -0.396875,-0.36448 0,-0.52512 -0.700065,-1.0595 -0.920579,-0.7027 -0.290881,0.47066 -1.996489,1.06788 -3.014337,1.05548 -0.527932,-0.006 -1.405048,-0.24672 -1.949147,-0.53399 z m 8.265312,0.25633 c 0,-0.15914 0.238125,-0.35162 0.529167,-0.42773 0.501312,-0.1311 0.529167,-0.3609 0.529167,-4.36563 0,-4.00472 -0.02786,-4.23452 -0.529167,-4.36562 -1.050318,-0.27466 -0.493552,-0.56245 1.256771,-0.64961 2.581877,-0.12857 4.309715,0.13173 4.734985,0.71333 0.19704,0.26946 0.35824,0.92956 0.35824,1.4669 0,0.80406 -0.18731,1.1462 -1.05833,1.93312 -0.58208,0.52587 -1.05833,1.00724 -1.05833,1.06969 0,0.0625 0.58645,0.99913 1.30322,2.08149 1.25665,1.89763 1.90928,2.47582 2.43074,2.15354 0.40138,-0.24806 1.69686,-2.9984 2.48383,-5.27325 1.10823,-3.20345 1.76491,-4.65924 2.0577,-4.56164 0.14542,0.0485 0.94615,2.08183 1.779384,4.51857 0.83324,2.43674 1.76926,4.70111 2.08005,5.03193 0.31079,0.33083 0.56508,0.67483 0.56508,0.76447 0,0.22452 -3.104364,0.094 -3.338744,-0.14033 -0.10397,-0.10397 0.025,-0.18904 0.286554,-0.18904 0.39842,0 0.45047,-0.15479 0.32077,-0.95403 -0.0851,-0.52471 -0.341594,-1.23909 -0.569884,-1.5875 -0.3546,-0.54118 -0.62714,-0.63347 -1.87073,-0.63347 -1.3191,0 -1.47986,0.0637 -1.71369,0.67868 -0.38613,1.01561 -0.31612,2.22605 0.13884,2.40064 0.97479,0.37406 0.21743,0.62485 -1.88699,0.62485 -2.24682,0 -2.29724,-0.0143 -3.10885,-0.88171 -0.45375,-0.48494 -1.259769,-1.6702 -1.791164,-2.6339 l -0.966173,-1.75219 0.899206,-0.29677 c 1.694401,-0.5592 2.198861,-2.1573 1.045171,-3.311 -0.658579,-0.65858 -1.829271,-0.86933 -2.129601,-0.38339 -0.289508,0.46843 -0.386288,7.72434 -0.109917,8.24074 0.143952,0.26898 0.502693,0.48905 0.797203,0.48905 0.294509,0 0.461887,0.11906 0.371951,0.26458 -0.227839,0.36865 -3.836459,0.34535 -3.836459,-0.0248 z m 13.257123,-5.91147 c -0.3735,-1.08212 -0.71653,-1.93005 -0.76229,-1.88428 -0.0899,0.0899 -1.38233,3.60386 -1.38233,3.75832 0,0.0514 0.63533,0.0935 1.41185,0.0935 h 1.41186 z m 4.999134,5.96864 c 0,-0.1277 0.17859,-0.38041 0.39687,-0.56156 0.32229,-0.26747 0.39688,-1.11893 0.39688,-4.53032 0,-4.08056 -0.0158,-4.20093 -0.55122,-4.20093 -0.32384,0 -0.50538,-0.13643 -0.4401,-0.33073 0.0815,-0.24263 1.05656,-0.33073 3.66007,-0.33073 2.94523,0 3.71972,0.0848 4.5528,0.4987 1.27705,0.63442 1.77428,1.60559 1.77428,3.46541 0,2.62905 -1.16597,4.45437 -3.57188,5.59177 -1.09185,0.51617 -1.75038,0.62586 -3.77031,0.62799 -1.34607,0.001 -2.44739,-0.1019 -2.44739,-0.2296 z m 6.28627,-1.0893 c 1.4074,-0.8581 1.91368,-1.96132 1.91482,-4.1725 9.3e-4,-1.81086 -0.0502,-1.97792 -0.88258,-2.88626 -0.72947,-0.79599 -1.12756,-0.99544 -2.28259,-1.14362 -0.76946,-0.0987 -1.68154,-0.12547 -2.02685,-0.0595 l -0.62782,0.12002 v 4.01728 c 0,2.77177 0.0984,4.11571 0.3175,4.33478 0.50506,0.50506 2.61736,0.38127 3.58752,-0.21024 z m 7.00244,0.79121 c -1.23304,-0.75178 -1.47419,-1.56802 -1.52398,-5.15826 -0.055,-3.96421 -0.0174,-3.74711 -0.67886,-3.92009 -0.30603,-0.08 -0.47736,-0.27223 -0.38126,-0.42773 0.19284,-0.31202 1.35227,-0.36107 2.81515,-0.11908 l 0.95205,0.15748 -0.62132,0.62133 c -0.58347,0.58347 -0.62133,0.81607 -0.62133,3.81766 0,3.53873 0.22105,4.19921 1.59599,4.76873 1.67513,0.69386 3.4274,-0.29638 3.83878,-2.16937 0.0988,-0.44996 0.0966,-2.03737 -0.005,-3.5276 -0.17477,-2.56407 -0.22077,-2.72594 -0.85704,-3.01584 -0.3698,-0.16849 -0.59567,-0.38304 -0.50193,-0.47678 0.16708,-0.16708 3.12009,-0.115 3.29344,0.0581 0.0485,0.0484 -0.14248,0.31874 -0.42441,0.60067 -0.42835,0.42835 -0.53458,1.01053 -0.64628,3.54163 -0.14991,3.39702 -0.55266,4.60624 -1.77458,5.32805 -1.07608,0.63566 -3.35354,0.59537 -4.45942,-0.0789 z m 7.61337,0.42597 c 0,-0.0574 0.32742,-0.45696 0.7276,-0.88798 0.40186,-0.43282 1.12931,-1.89638 1.62488,-3.26912 1.5601,-4.32148 2.45954,-6.34949 2.77049,-6.24671 0.16554,0.0547 0.86463,1.81635 1.55352,3.91474 1.61253,4.91184 1.96326,5.673 2.78698,6.04831 0.56991,0.25967 0.75427,0.23261 1.14505,-0.16803 0.51137,-0.52427 0.56804,-1.11844 0.52961,-5.55293 -0.0235,-2.71443 -0.0693,-2.9726 -0.5548,-3.12668 -1.11533,-0.35399 -0.43004,-0.58993 2.20904,-0.76055 4.61878,-0.29861 6.76418,0.54809 7.19399,2.83917 0.49065,2.61542 -0.88917,5.34889 -3.32984,6.5965 -1.42017,0.72596 -1.51094,0.73679 -5.74246,0.68504 -3.74832,-0.0458 -5.00839,-0.21622 -4.02451,-0.54418 0.29863,-0.0995 -0.32238,-2.15009 -0.84007,-2.77387 -0.1786,-0.21519 -0.85284,-0.35357 -1.7228,-0.35357 -1.29087,0 -1.45436,0.0658 -1.6874,0.67868 -0.4377,1.15126 -0.32013,2.17637 0.27114,2.36403 1.06617,0.33839 0.48464,0.66146 -1.19063,0.66146 -0.94589,0 -1.71979,-0.0469 -1.71979,-0.10431 z m 15.875,-0.83115 c 1.64525,-0.45691 2.64583,-2.16102 2.64583,-4.50616 0,-3.1744 -1.2784,-4.26605 -4.82864,-4.12328 l -0.99219,0.0399 v 4.06864 c 0,4.23547 0.0566,4.46046 1.19062,4.7327 0.5495,0.13192 0.86981,0.0977 1.98438,-0.2118 z m -10.05417,-3.51092 c 0,-0.11718 -0.27749,-1.03567 -0.61665,-2.0411 l -0.61665,-1.82806 -0.70627,1.84828 c -0.38844,1.01655 -0.70626,1.93504 -0.70626,2.0411 0,0.10605 0.59531,0.19282 1.32292,0.19282 0.7276,0 1.32291,-0.0959 1.32291,-0.21304 z m 27.16389,4.26999 c -0.27564,-0.27564 -0.2068,-2.99861 0.0758,-2.99861 0.13871,0 0.48724,0.53134 0.77451,1.18075 0.37313,0.84353 0.72228,1.23095 1.22252,1.3565 1.49637,0.37556 2.78303,-0.99954 2.24914,-2.40377 -0.13807,-0.36314 -0.89743,-1.07376 -1.68746,-1.57914 -2.58834,-1.65574 -3.16501,-3.07015 -1.87621,-4.6018 0.79394,-0.94355 2.1561,-1.45505 3.20585,-1.20383 1.14087,0.27303 1.4157,0.60534 1.4157,1.71182 0,1.19554 -0.44129,1.61609 -0.68343,0.65131 -0.4859,-1.93597 -3.28532,-2.33262 -3.28532,-0.46549 0,0.97834 0.40728,1.5161 1.84881,2.44113 1.60286,1.02855 2.38452,1.9602 2.38452,2.84207 0,1.02651 -0.79494,2.43872 -1.61004,2.86023 -0.74728,0.38644 -3.70376,0.53947 -4.0344,0.20883 z M 77.921283,203.49917 c -1.728728,-0.68934 -2.645969,-2.23724 -2.645969,-4.46525 0,-2.39029 0.975542,-4.03219 3.017884,-5.07929 1.149042,-0.58911 3.508174,-0.7099 4.721178,-0.24172 0.64517,0.24901 0.727604,0.41646 0.727604,1.478 0,0.65845 -0.0893,1.19259 -0.198437,1.18698 -0.109141,-0.006 -0.438476,-0.39256 -0.731855,-0.85989 -0.343849,-0.54773 -0.927306,-0.9864 -1.641759,-1.23433 -1.016783,-0.35285 -1.213143,-0.34153 -2.376999,0.13704 -1.696775,0.6977 -2.257669,1.75267 -2.130944,4.00805 0.07654,1.36219 0.231298,1.81548 0.903322,2.64584 1.543017,1.90656 3.694708,2.07543 5.635582,0.44229 1.096208,-0.9224 1.026004,-0.23971 -0.0829,0.80612 -1.369318,1.29143 -3.626491,1.80229 -5.19671,1.17616 z m 9.962799,-0.0744 c -0.5595,-0.20735 -1.29758,-0.64034 -1.640178,-0.96219 -0.713256,-0.67007 -1.446328,-2.61088 -1.43778,-3.80653 0.01257,-1.75857 1.802609,-4.25118 3.517143,-4.89758 1.23643,-0.46615 3.339989,-0.33587 4.625599,0.28648 4.05767,1.96429 1.95342,9.29607 -2.77214,9.6589 -0.703761,0.054 -1.731302,-0.071 -2.292644,-0.27908 z m 3.930394,-0.80306 c 1.16356,-0.48617 1.9794,-1.81406 1.98068,-3.22381 0.003,-3.71317 -3.30487,-6.25468 -6.001394,-4.61049 -1.145677,0.69857 -1.458865,1.3894 -1.458865,3.21796 0,2.05206 0.895702,3.646 2.493199,4.43674 1.33686,0.66174 1.7701,0.68779 2.98638,0.1796 z m 7.47177,0.97726 c -2.6215,-0.0784 -3.44191,-0.31036 -2.44739,-0.69199 0.32925,-0.12635 0.39687,-0.85389 0.39687,-4.26995 0,-3.41605 -0.0676,-4.14359 -0.39687,-4.26994 -0.89252,-0.34249 -0.29473,-0.62485 1.32292,-0.62485 1.65788,0 2.285704,0.31946 1.19062,0.60583 -0.49558,0.1296 -0.5294,0.36248 -0.53278,3.66888 -0.002,1.94178 -0.0734,3.79076 -0.15872,4.10887 -0.13372,0.49863 -0.021,0.60352 0.81761,0.76084 1.305224,0.24486 2.154514,-0.18933 2.639164,-1.34925 0.50866,-1.21739 1.05345,-0.96973 0.81626,0.37107 -0.24593,1.39021 -0.41774,1.89553 -0.6228,1.83174 -0.0993,-0.0309 -1.46053,-0.0945 -3.024884,-0.14125 z m 7.276054,9e-5 c -2.50581,-0.0792 -3.29634,-0.31555 -2.31511,-0.69208 0.3291,-0.12629 0.39688,-0.85099 0.39688,-4.24381 0,-3.85915 -0.0301,-4.10106 -0.52917,-4.25947 -1.18254,-0.37532 -0.39567,-0.66146 1.81901,-0.66146 1.2915,0 2.72025,-0.0744 3.175,-0.16536 0.74965,-0.14993 0.82682,-0.10363 0.82682,0.49609 0,1.04438 -0.3086,2.31511 -0.56224,2.31511 -0.12733,0 -0.23151,-0.35017 -0.23151,-0.77814 0,-0.93237 -0.13288,-1.02975 -1.69785,-1.24426 l -1.21256,-0.1662 v 1.92506 1.92507 l 1.47704,-0.15245 c 1.25051,-0.12906 1.45341,-0.0908 1.32292,0.24921 -0.0848,0.22091 -0.15413,0.45144 -0.15413,0.5123 0,0.0609 -0.59531,0.11066 -1.32292,0.11066 h -1.32291 v 1.96654 c 0,1.74146 0.0612,1.98599 0.53511,2.13638 1.03469,0.3284 2.11615,-0.1276 2.57258,-1.08475 0.52791,-1.10704 0.86106,-1.15539 0.86106,-0.12498 0,0.91851 -0.42986,2.15736 -0.72106,2.07809 -0.11274,-0.0307 -1.42538,-0.0944 -2.91696,-0.14155 z m 7.20989,-0.17615 c -1.70277,-0.7568 -2.51354,-2.22919 -2.51354,-4.56468 0,-3.7055 2.98966,-6.0242 6.88315,-5.33838 l 1.58352,0.27893 v 1.44256 c 0,1.53159 -0.25477,1.65422 -0.78371,0.37723 -0.68221,-1.647 -3.5348,-2.09143 -4.96494,-0.77354 -3.3376,3.07565 -0.10093,9.65917 3.6573,7.43912 0.63285,-0.37383 0.76843,-0.63058 0.76843,-1.4552 0,-0.8852 -0.0749,-1.00129 -0.64584,-1.00129 -0.35522,0 -0.71092,-0.10529 -0.79045,-0.23397 -0.14878,-0.24073 3.24784,-0.57705 3.63902,-0.36032 0.12009,0.0665 -0.0266,0.34921 -0.32605,0.62816 -0.47506,0.44259 -0.52335,0.70864 -0.3791,2.08874 0.15591,1.49166 0.13308,1.58156 -0.40156,1.58156 -0.31716,0 -0.56685,-0.16794 -0.56685,-0.38126 0,-0.68825 -0.47057,-0.69335 -1.73915,-0.0188 -1.39374,0.74105 -2.24497,0.81352 -3.42023,0.29118 z m 15.61042,-0.006 c -1.29377,-0.47275 -2.71036,-2.03271 -2.93545,-3.23255 -0.46098,-2.45725 0.90911,-5.30274 3.00661,-6.24427 3.57371,-1.60419 7.20325,0.44704 7.20447,4.0716 5.5e-4,1.64643 -1.147,3.82361 -2.52631,4.79303 -1.30077,0.91422 -3.23903,1.16406 -4.74932,0.61219 z m 3.92876,-0.8197 c 1.36691,-0.66502 1.89207,-1.61728 1.89207,-3.43083 0,-2.11391 -0.715,-3.47994 -2.24492,-4.28898 -2.20298,-1.16496 -4.14873,-0.62237 -4.90924,1.369 -0.86566,2.2667 0.21499,5.15473 2.3184,6.1959 1.34785,0.66717 1.83779,0.69295 2.94369,0.15491 z m 8.92388,0.38528 c -0.71074,-0.71074 -0.8141,-0.99795 -0.8141,-2.2621 0,-2.61664 1.45733,-4.34427 3.8306,-4.54108 l 1.46106,-0.12116 v -1.15786 c 0,-0.96974 -0.0834,-1.15787 -0.51355,-1.15787 -0.28245,0 -0.58184,-0.11049 -0.6653,-0.24553 -0.15627,-0.25286 0.15692,-0.38291 1.64188,-0.68178 l 0.85989,-0.17306 v 5.0481 c 0,5.02469 0.003,5.04811 0.58208,5.04811 0.81422,0 0.30155,0.42001 -0.91281,0.74783 l -0.99219,0.26785 v -1.19358 -1.19358 l -1.18075,1.2149 c -1.41949,1.46055 -2.14845,1.54917 -3.29681,0.40081 z m 3.66145,-1.66968 c 0.67707,-0.85333 0.81611,-1.26477 0.81611,-2.415 0,-1.51392 -0.25967,-1.8868 -1.4846,-2.13179 -1.055,-0.211 -2.12308,0.66259 -2.49393,2.03981 -0.35773,1.32854 -0.14252,2.3679 0.67238,3.24719 0.78671,0.84888 1.36577,0.67674 2.49004,-0.74021 z m 5.8432,2.29692 c -2.64493,-0.96686 -2.93476,-5.45267 -0.45018,-6.9676 1.26383,-0.7706 2.45093,-0.67507 3.39957,0.27357 0.51371,0.5137 0.76224,1.00183 0.70726,1.38906 -0.0776,0.54645 -0.28304,0.61746 -2.42445,0.83798 l -2.33968,0.24094 0.16296,0.81739 c 0.19512,0.97875 1.33832,2.17584 2.30101,2.40951 0.54473,0.13221 0.90236,-0.0133 1.65365,-0.67297 1.0652,-0.93526 1.26892,-0.72354 0.38502,0.40015 -0.85023,1.0809 -2.36522,1.64848 -3.39516,1.27197 z m 1.38906,-5.01005 c 0.58356,-0.0965 0.99219,-0.31319 0.99219,-0.52625 0,-0.49383 -0.96262,-1.42059 -1.47556,-1.42059 -0.46989,0 -1.96403,1.3935 -1.96403,1.83173 0,0.31786 0.95034,0.36256 2.4474,0.11511 z m -31.28698,4.68089 c 0,-0.13829 0.20836,-0.36793 0.46302,-0.51031 0.38012,-0.21253 0.47963,-0.71786 0.55577,-2.82238 0.12914,-3.56933 -0.12968,-5.43631 -0.77709,-5.60561 -1.04876,-0.27426 -0.44151,-0.55945 1.37184,-0.64428 2.01927,-0.0945 2.52676,0.12165 1.44409,0.61494 l -0.67638,0.30818 v 4.05858 c 0,3.88218 0.023,4.05857 0.52917,4.05857 0.29398,0 0.52917,0.17639 0.52917,0.39687 0,0.31207 -0.36748,0.39688 -1.7198,0.39688 -0.94588,0 -1.71979,-0.11315 -1.71979,-0.25144 z"
       id="path1"
       inkscape:export-filename="logo.co.svg"
       inkscape:export-xdpi="96"
       inkscape:export-ydpi="96"
       sodipodi:nodetypes="ccsssscccccsscccccccssccscccssscccsssscsssccccssssscssccscsssscsssssscscsssssssssscsssssssccsssssccssscssscsssscssssssssssssssssscsscsssssccccscsscsssssscsscsscsscsssssssccssssssssssssssssssssssssssssccscssssccssssssssssssssscsssssssssssssscssssssscssssssssssscscsssssssssssssscssscssssssscscssssssssssssssssssssscscscsscsscsscssssssccssssscsscsccscccscsscsssccccssccssscssscsssssscscsssssccsssscssssscsssssscsssscsssssccccssscccsssssssssccsssssssssscsssssssscsssssssssssssssssssssssssssscssssssscscssssssssssscssssscsscsssscssssssccsssscssssssscsscscscsccscccsscsscsssccsssssssssssssssssssccsscssscsscsscsscssssssssssssssssssssssssscssssssssscssssccscsssscssssssssssscssscsssssscccsssscscsssscsscsssssssccssscccssssssssssssssscsssscssscccssssssssssssscssssscssscsssscscsssss" /></g></svg>
