<?xml version="1.0" encoding="UTF-8" standalone="no"?>
<!-- Created with Inkscape (http://www.inkscape.org/) -->

<svg
   width="71.621414mm"
   height="70.002777mm"
   viewBox="0 0 71.621415 70.002777"
   version="1.1"
   id="svg1"
   xml:space="preserve"
   xmlns:inkscape="http://www.inkscape.org/namespaces/inkscape"
   xmlns:sodipodi="http://sodipodi.sourceforge.net/DTD/sodipodi-0.dtd"
   xmlns="http://www.w3.org/2000/svg"
   xmlns:svg="http://www.w3.org/2000/svg"><sodipodi:namedview
     id="namedview1"
     pagecolor="#ffffff"
     bordercolor="#000000"
     borderopacity="0.25"
     inkscape:showpageshadow="2"
     inkscape:pageopacity="0.0"
     inkscape:pagecheckerboard="0"
     inkscape:deskcolor="#d1d1d1"
     inkscape:document-units="mm" /><defs
     id="defs1" /><g
     inkscape:label="Capa 1"
     inkscape:groupmode="layer"
     id="layer1"
     transform="translate(-55.894292,-193.07473)"><path
       d="m 73.832027,262.92769 c -10.01576,-0.65086 -16.20617,-5.25311 -17.65118,-13.12273 -0.38101,-2.07504 -0.38146,-2.51083 -0.005,-4.81479 0.58621,-3.58708 2.15711,-6.69207 4.62602,-9.14368 2.7691,-2.74969 4.46958,-3.78356 10.38427,-6.31347 5.67306,-2.42655 8.21887,-4.30905 8.60406,-6.36225 0.34666,-1.84788 -0.0986,-2.75366 -4.60977,-9.37736 -2.84362,-4.17524 -4.84552,-8.0771 -4.89015,-9.53125 -0.0495,-1.61249 0.62365,-1.40654 2.52038,0.77112 0.92552,1.06261 2.54817,2.81854 3.60588,3.90207 1.68887,1.73009 1.97031,1.92284 2.31066,1.5825 0.52579,-0.52579 0.20198,-1.64047 -1.64689,-5.66921 -2.6409,-5.7546 -3.13287,-7.39848 -2.30883,-7.7147 0.63479,-0.24359 1.42148,0.67739 3.29383,3.85608 2.82415,4.79458 4.87157,7.81565 5.3606,7.90983 0.96421,0.18569 0.53299,-2.95645 -1.20957,-8.81371 -1.33613,-4.49113 -1.69628,-6.39705 -1.28627,-6.80706 0.23425,-0.23425 0.45185,-0.24726 0.78054,-0.0466 0.69853,0.42632 2.47536,4.14923 3.85709,8.08158 1.37922,3.92517 2.60734,6.31275 3.24715,6.31275 0.37795,0 0.40059,-0.69001 0.22567,-6.87775 -0.19992,-7.07189 -0.13521,-7.67433 0.82435,-7.67433 0.8801,0 1.80856,3.46485 2.76025,10.30084 0.31265,2.24572 0.80972,4.86509 1.10461,5.82083 0.58579,1.89857 2.21678,4.5928 2.69102,4.44531 0.16372,-0.0509 0.97155,-1.37622 1.79517,-2.94513 1.76489,-3.36193 2.448373,-4.18366 3.388583,-4.07399 0.65307,0.0762 0.66958,0.12883 0.64678,2.06256 -0.044,3.73247 -1.71283,8.27902 -4.620423,12.58788 -1.83778,2.72347 -3.40406,4.26269 -6.1767,6.06999 -4.27545,2.78688 -7.73796,4.09563 -14.6793,5.54843 -2.52876,0.52926 -5.35548,1.23734 -6.28162,1.57351 -3.77128,1.3689 -6.48737,3.70564 -8.08918,6.95938 -0.76467,1.55326 -0.86887,2.01794 -0.85392,3.80791 0.0145,1.73809 0.14171,2.292 0.86245,3.75603 1.68717,3.42713 5.79323,6.23101 10.52377,7.18631 1.88629,0.38092 4.10394,0.42095 18.25625,0.32954 13.471223,-0.087 16.390783,-0.17204 17.828943,-0.51932 5.7252,-1.38245 10.55854,-4.77155 11.90786,-8.3497 1.14598,-3.03891 0.49141,-5.85627 -1.90847,-8.21444 -2.83508,-2.78578 -6.43182,-4.3438 -12.67486,-5.49045 -2.90898,-0.53429 -11.197493,-0.83092 -11.457613,-0.41005 -0.25453,0.41185 -0.57679,3.77879 -1.22815,12.83166 -0.54796,7.6158 -0.79894,9.2498 -1.33794,8.71081 -0.18908,-0.18909 -0.20672,-3.99442 -0.0563,-12.14777 l 0.21903,-11.87243 7.40833,0.0469 c 8.074313,0.0511 10.833093,0.34409 14.725643,1.56389 5.67154,1.77728 10.15089,5.48227 12.1487,10.04853 0.80966,1.85057 0.99737,5.55852 0.38834,7.67106 -1.76523,6.123 -8.20741,10.67798 -17.26051,12.20413 -2.17191,0.36614 -5.06855,0.44631 -17.807373,0.4929 -8.36745,0.0306 -16.58276,-0.0333 -18.25625,-0.14209 z m -0.1694,-15.0691 c -3.58107,-0.83791 -5.56967,-2.16635 -5.09649,-3.40461 0.28815,-0.75406 3.38151,-2.23167 5.66277,-2.70494 2.52314,-0.52345 7.82726,-0.40307 10.22723,0.23211 2.0598,0.54516 4.54131,1.65215 4.8602,2.16812 0.34244,0.55408 -0.14935,1.54105 -1.04314,2.09345 -0.49806,0.30781 -1.77818,0.86505 -2.84472,1.23831 -2.70311,0.94602 -8.53636,1.1332 -11.76585,0.37756 z m 2.68294,-2.92473 c 0,-1.36634 -0.0925,-1.8518 -0.35279,-1.85228 -0.49541,-9.2e-4 -4.52253,1.01688 -5.41009,1.36732 -0.67681,0.26722 -0.69802,0.31641 -0.26458,0.61355 0.7522,0.51565 4.35888,1.62564 5.4983,1.69215 0.4817,0.0281 0.52916,-0.1352 0.52916,-1.82074 z m 8.46667,1.16443 c 3.8668,-0.93984 3.66325,-1.59414 -0.80971,-2.60285 -1.00987,-0.22774 -2.07425,-0.4685 -2.36529,-0.53502 -0.48095,-0.10993 -0.52975,0.0166 -0.53553,1.38884 -0.004,0.83039 -0.11181,1.73452 -0.2407,2.00919 -0.21836,0.46533 -0.14571,0.48665 1.06469,0.31255 0.71447,-0.10278 2.01341,-0.3605 2.88654,-0.57271 z m 19.059803,1.45367 c -3.10396,-2.72531 -0.0182,-7.67022 3.68876,-5.91117 3.36548,1.59703 2.23959,6.7318 -1.47608,6.7318 -1.05205,0 -1.44329,-0.1451 -2.21268,-0.82063 z"
       style="fill:#b25335;fill-opacity:1"
       id="path1"
       inkscape:export-filename="logo.sinletras.blanco.svg"
       inkscape:export-xdpi="96"
       inkscape:export-ydpi="96" /></g></svg>
