<?xml version="1.0" encoding="UTF-8" standalone="no"?>
<!-- Created with Inkscape (http://www.inkscape.org/) -->

<svg
   width="215.93352mm"
   height="78.059059mm"
   viewBox="0 0 215.93352 78.059059"
   version="1.1"
   id="svg1"
   xml:space="preserve"
   xmlns:inkscape="http://www.inkscape.org/namespaces/inkscape"
   xmlns:sodipodi="http://sodipodi.sourceforge.net/DTD/sodipodi-0.dtd"
   xmlns="http://www.w3.org/2000/svg"
   xmlns:svg="http://www.w3.org/2000/svg"><sodipodi:namedview
     id="namedview1"
     pagecolor="#ffffff"
     bordercolor="#000000"
     borderopacity="0.25"
     inkscape:showpageshadow="2"
     inkscape:pageopacity="0.0"
     inkscape:pagecheckerboard="0"
     inkscape:deskcolor="#d1d1d1"
     inkscape:document-units="mm" /><defs
     id="defs1" /><g
     inkscape:label="Capa 1"
     inkscape:groupmode="layer"
     id="layer1"
     transform="translate(-258.61756,12.842642)"><path
       style="fill:#f2f2f2"
       d="m 258.61756,64.283406 v -0.92605 h 94.41471 c 51.92809,0 95.86215,0.0778 97.63125,0.17296 1.76909,0.0951 3.21654,0.27979 3.21654,0.41037 0,0.42963 -1.81012,1.00417 -3.16367,1.00417 -0.73071,0 -1.92516,-0.22668 -2.65433,-0.50374 l -1.32575,-0.50375 v 0.63604 0.63604 h -94.05938 -94.05937 z m 197.81086,0.20191 c 0.0984,-0.40209 0.30944,-0.81855 0.46894,-0.92547 0.15949,-0.10691 4.19683,-0.19621 8.97186,-0.19843 l 8.68186,-0.004 -0.0829,0.8599 -0.0829,0.8599 -9.06789,0.0696 -9.06789,0.0696 z m -96.46613,-6.93139 c -0.3415,-0.6381 -0.35449,-1.52386 -0.0253,-1.7273 0.13671,-0.0845 0.55197,0.17358 0.92279,0.5735 0.61184,0.65984 0.71255,0.68879 1.08842,0.31293 0.58359,-0.58359 0.90369,-3.20502 0.90989,-7.45131 l 0.005,-3.64457 -0.66146,-0.25148 c -1.23428,-0.46928 -0.7108,-0.79411 1.25678,-0.77987 1.82107,0.0132 1.88807,0.0349 1.32291,0.42914 -0.55813,0.38934 -0.59604,0.60741 -0.60693,3.49185 -0.0231,6.12344 -0.42389,7.64114 -2.36694,8.96357 -1.07144,0.72921 -1.48978,0.74815 -1.84546,0.0835 z m 15.24832,0.33538 c -0.23,-0.23001 -0.22821,-1.53567 0.002,-1.76631 0.0983,-0.0983 0.45848,0.0839 0.80029,0.40504 l 0.62148,0.58385 0.58877,-0.58846 c 0.55981,-0.5595 0.59324,-0.83428 0.67932,-5.58412 0.0855,-4.71553 0.0607,-5.02547 -0.44098,-5.52717 -0.29232,-0.29233 -0.46205,-0.60097 -0.37716,-0.68585 0.20878,-0.20879 2.84546,-0.19724 3.05609,0.0134 0.0922,0.0923 -0.0665,0.46549 -0.35278,0.82943 -0.46002,0.58481 -0.5205,1.08244 -0.5205,4.28217 0,4.50276 -0.35897,5.90797 -1.85436,7.25897 -0.99412,0.89813 -1.79888,1.18278 -2.20259,0.77907 z m -93.83888,-0.89155 c -4.32705,-0.19706 -5.52476,-0.39991 -8.50126,-1.43984 -4.51172,-1.5763 -7.90983,-4.77805 -9.41325,-8.86931 -1.32341,-3.60137 -1.33749,-6.59932 -0.0494,-10.51534 1.1207,-3.40712 4.53971,-7.50341 7.95967,-9.53644 0.80446,-0.47822 3.01463,-1.56638 4.9115,-2.41815 5.24122,-2.35351 7.22252,-3.46505 8.5808,-4.81397 2.37135,-2.35501 2.10806,-3.52289 -2.29476,-10.1787462 -3.69074,-5.5794 -5.43005,-8.82216901 -5.6158,-10.470139 -0.26353,-2.338113 0.12444,-2.098935 4.68377,2.887475 2.81851,3.082526 3.71144,3.624829 3.70303,2.248959 -0.004,-0.722142 -0.76753,-2.695753 -2.8686,-7.418943 -1.3172,-2.961053 -1.81106,-4.737681 -1.42443,-5.124312 0.50797,-0.507971 1.30642,0.252772 2.81542,2.682466 0.81513,1.31247 2.16544,3.486237 3.00069,4.830594 4.11306,6.620064 4.60397,5.041662 1.66541,-5.354701 -1.27521,-4.5115808 -1.46459,-6.2177088 -0.69017,-6.2177088 0.70133,0 2.16512,2.7648748 3.91575,7.3962648 1.7293,4.57494499 2.86607,6.891235 3.38203,6.891235 0.34196,0 0.38264,-0.89041501 0.30394,-6.65193 -0.0917,-6.7128428 0.0256,-7.7678618 0.86378,-7.7678618 0.85598,0 1.55989,2.558674 2.78323,10.1168358 0.87632,5.414249 1.40873,7.245371 2.68479,9.233935 0.75368,1.174509 0.88221,1.267594 1.26764,0.918071 0.23591,-0.213928 1.02412,-1.487796 1.75157,-2.830817 1.49816,-2.765867 2.54554,-4.02746801 3.23462,-3.89618001 0.38168,0.07272 0.48557,0.41167101 0.55378,1.80664601 0.11067,2.26353 -0.32343,4.393935 -1.45508,7.141093 -2.11731,5.1398842 -5.26381,9.1543742 -9.25819,11.8121442 -3.98946,2.6545 -7.35121,3.85276 -17.2785,6.15875 -4.54713,1.05624 -6.91735,2.19838 -9.10097,4.38552 -0.90599,0.90744 -1.9995,2.36081 -2.48028,3.29649 -0.77625,1.51071 -0.8599,1.89771 -0.8599,3.97819 0,1.95609 0.10102,2.49466 0.66787,3.56077 1.91417,3.60005 5.01723,5.83734 10.18005,7.33978 1.5279,0.44463 32.82762,0.41616 35.71928,-0.0325 2.13902,-0.33188 5.02249,-1.4186 7.28317,-2.74489 4.84661,-2.84339 7.04544,-7.39048 5.35711,-11.07828 -1.82013,-3.9757 -6.13939,-6.5299 -13.76826,-8.14188 -2.91526,-0.61599 -11.90155,-1.08035 -12.18025,-0.62941 -0.25801,0.41747 -0.66567,4.30703 -1.10446,10.53803 -0.44259,6.2848 -0.83999,10.16361 -1.11463,10.87933 -0.50419,1.31388 -0.61657,-1.75956 -0.448,-12.25144 l 0.18414,-11.46019 7.03543,0.005 c 7.5004,0.006 11.02892,0.32561 14.57605,1.32233 6.79418,1.90911 12.26237,6.98235 13.256,12.29855 1.28591,6.87989 -3.18396,13.07707 -11.73392,16.26832 -3.26593,1.219 -5.5401,1.61018 -10.7825,1.85471 -5.89045,0.27475 -23.78832,0.26956 -29.89791,-0.009 z m 62.07564,-2.71362 c -0.91819,-0.91818 -1.12857,-2.33038 -0.59795,-4.01371 0.64405,-2.04315 1.97473,-3.05265 4.02391,-3.05265 0.8594,0 0.90881,-0.0495 0.90881,-0.91104 0,-0.62528 -0.17411,-1.03299 -0.55508,-1.29983 l -0.55509,-0.3888 0.62123,-0.39241 c 0.34168,-0.21582 0.88913,-0.47235 1.21655,-0.57007 l 0.59531,-0.17768 v 4.89948 c 0,4.38405 0.0487,4.92867 0.46302,5.17701 0.4359,0.26128 0.43294,0.30079 -0.0506,0.67461 -0.28247,0.21838 -0.78849,0.39706 -1.12448,0.39706 -0.54644,0 -0.61089,-0.12398 -0.61089,-1.17522 v -1.17522 l -1.12448,1.16579 c -1.44478,1.49786 -2.32426,1.72872 -3.21029,0.84268 z m 3.14974,-1.59507 c 1.44012,-1.44012 1.57019,-3.66179 0.26447,-4.51732 -0.58313,-0.38209 -0.76758,-0.38985 -1.54502,-0.065 -1.1097,0.46367 -1.61866,1.60741 -1.43608,3.22721 0.1395,1.23762 0.78864,2.23384 1.45559,2.23384 0.21028,0 0.77775,-0.39542 1.26104,-0.87871 z m 5.81524,1.71435 c -1.03847,-0.63492 -1.34729,-1.03851 -1.65326,-2.16061 -0.34669,-1.27144 0.2176,-3.10377 1.26484,-4.10709 1.08663,-1.04105 2.78361,-1.10535 3.80669,-0.14421 1.43471,1.34784 0.74504,2.13669 -1.86807,2.13669 -1.05371,0 -1.99122,0.12197 -2.08336,0.27104 -0.28459,0.46048 0.13748,1.76964 0.80154,2.48618 0.79695,0.85992 2.14568,0.9126 3.14946,0.12303 0.86276,-0.67865 1.22946,-0.45519 0.52724,0.32128 -0.55187,0.61022 -2.26555,1.56156 -2.81006,1.55998 -0.1877,-5.5e-4 -0.69846,-0.21937 -1.13502,-0.48629 z m 2.65794,-5.08856 c 0.2189,-0.35419 -0.88824,-1.56791 -1.43024,-1.56791 -0.50445,0 -1.62457,1.03514 -1.62457,1.50133 0,0.43544 2.78927,0.49624 3.05481,0.0666 z m 13.74623,5.08856 c -1.4835,-0.90701 -1.57115,-1.16622 -1.71669,-5.07685 -0.12948,-3.47935 -0.16428,-3.6622 -0.79685,-4.18761 l -0.66146,-0.54941 2.08915,-0.009 2.08916,-0.009 -0.70009,0.64882 c -0.67286,0.62359 -0.69931,0.75481 -0.67976,3.37344 0.0316,4.23489 0.64202,5.48773 2.67919,5.49884 2.21276,0.0121 3.023,-1.59019 2.76791,-5.47358 -0.13439,-2.04589 -0.27327,-2.66199 -0.7032,-3.11963 -0.29466,-0.31365 -0.45528,-0.65074 -0.35694,-0.74908 0.0983,-0.0984 0.87691,-0.17881 1.73014,-0.17881 h 1.55132 l -0.55699,0.75336 c -0.43799,0.59242 -0.61356,1.39788 -0.8218,3.77031 -0.15396,1.75402 -0.45021,3.4046 -0.7077,3.94299 -0.81056,1.6948 -3.50864,2.40221 -5.20539,1.36481 z m 15.49272,0.11773 c -1.65609,-0.59832 -1.95811,-1.32867 -2.06282,-4.98832 -0.10985,-3.83918 -0.2102,-4.43172 -0.75056,-4.43172 -0.2241,0 -0.33386,-0.11906 -0.24393,-0.26458 0.18879,-0.30547 3.57188,-0.36575 3.57188,-0.0636 0,0.11051 -0.23813,0.34965 -0.52917,0.5314 -0.48613,0.3036 -0.52916,0.61702 -0.52916,3.85399 0,3.40389 0.0222,3.54433 0.65282,4.13681 0.92172,0.86591 2.95605,1.0458 3.82938,0.33862 0.59535,-0.48209 0.64835,-0.73173 0.75679,-3.56477 0.12336,-3.22276 -0.19613,-4.96783 -0.9095,-4.96783 -0.21559,0 -0.31839,-0.11906 -0.22845,-0.26458 0.0899,-0.14552 0.87443,-0.26458 1.74332,-0.26458 h 1.57981 l -0.52238,0.7276 c -0.40378,0.5624 -0.58265,1.46042 -0.78778,3.95503 -0.15819,1.92365 -0.43315,3.55181 -0.68064,4.03042 -0.76549,1.48028 -2.79424,1.99318 -4.88961,1.23615 z m 10.03957,0.12633 c 0,-0.11274 0.25056,-0.49109 0.55681,-0.84078 0.46929,-0.53585 0.53589,-0.87198 0.42368,-2.13824 -0.14531,-1.63984 -0.89876,-3.23892 -2.56072,-5.43475 -0.56264,-0.74338 -0.9532,-1.42139 -0.86791,-1.50668 0.0853,-0.0853 0.61523,-0.15508 1.17762,-0.15508 0.73792,0 1.06605,0.12888 1.17885,0.46302 0.40749,1.20711 1.7941,4.06548 2.0922,4.31289 0.25507,0.21169 0.53794,-0.13554 1.19089,-1.46188 0.73565,-1.49431 0.81349,-1.83358 0.55226,-2.40693 -0.42369,-0.9299 -0.44891,-0.9071 1.0032,-0.9071 1.3038,0 1.95445,0.33773 1.20483,0.62539 -0.58165,0.2232 -2.99253,4.03175 -3.31852,5.2424 -0.45807,1.70113 -0.2361,3.19019 0.53239,3.57141 0.47206,0.23417 0.5451,0.35763 0.26458,0.44727 -0.76082,0.24313 -3.43016,0.39026 -3.43016,0.18906 z m -112.6155,-12.47092 c -3.7544,-0.48959 -6.71158,-1.89668 -6.71158,-3.19352 0,-0.67079 1.45783,-1.69206 3.58743,-2.51313 1.60302,-0.61805 2.32548,-0.72384 5.68222,-0.83206 2.91259,-0.0939 4.34876,-0.0199 5.91908,0.3048 2.37998,0.49219 5.54253,1.93801 5.6625,2.58873 0.13756,0.74606 -1.31496,1.98936 -3.16192,2.70646 -2.90833,1.12919 -6.89979,1.4705 -10.97773,0.93872 z m 0.98814,-2.16868 c 0.0379,-1.21732 -0.0572,-2.69254 -0.18182,-2.82029 -0.15623,-0.16008 -5.47843,1.27031 -5.75477,1.54664 -0.31732,0.31732 0.93938,0.94292 3.17372,1.57993 2.5712,0.73305 2.73102,0.71533 2.76287,-0.30628 z m 8.65339,0.14247 c 0.91781,-0.22705 1.92984,-0.62668 2.24896,-0.88806 l 0.58022,-0.47523 -1.01344,-0.42728 c -1.38728,-0.58489 -5.13782,-1.35081 -5.38827,-1.10036 -0.11208,0.11208 -0.26888,0.9794 -0.34842,1.92737 l -0.14463,1.72357 1.19842,-0.1736 c 0.65913,-0.0955 1.94936,-0.35936 2.86716,-0.58641 z m 19.29208,1.73992 c -1.98514,-1.48073 -2.00098,-4.52773 -0.0307,-5.89804 2.20227,-1.53163 5.39588,0.20565 5.39588,2.93529 0,2.62816 -3.34062,4.4729 -5.36522,2.96275 z m 33.46128,-5.79177 c -1.99474,-1.21616 -2.13909,-4.55965 -0.27723,-6.4215 0.69385,-0.69385 0.91532,-0.76635 1.97591,-0.64681 1.47176,0.16589 2.54391,1.06553 2.43032,2.03929 -0.0738,0.63228 -0.17542,0.674 -1.79797,0.73785 -3.0803,0.12121 -3.31847,0.31536 -2.50079,2.03849 0.69667,1.46812 2.40921,1.89785 3.65573,0.91734 0.57578,-0.45291 0.69714,-0.47623 0.69714,-0.13395 0,0.53171 -2.02346,2.00554 -2.75168,2.00425 -0.30559,-5.5e-4 -0.94973,-0.24128 -1.43143,-0.53496 z m 2.86019,-5.13339 c 0,-0.37533 -1.19898,-1.47441 -1.60842,-1.47441 -0.46084,0 -1.64315,1.24955 -1.46107,1.54416 0.28995,0.46914 3.06949,0.40598 3.06949,-0.0698 z m 54.47005,5.13859 c -2.0188,-1.06677 -2.84498,-2.79008 -2.50983,-5.23523 0.36441,-2.65871 2.59099,-4.56459 5.37883,-4.60412 2.30582,-0.0327 3.59958,0.77447 4.43107,2.76451 0.81554,1.95186 0.30903,3.98877 -1.44012,5.79141 -1.75463,1.80826 -3.95479,2.29014 -5.85995,1.28343 z m 5.22797,-1.47202 c 1.0571,-1.12085 1.27545,-1.8357 1.04008,-3.4052 -0.21225,-1.41539 -1.03644,-2.6995 -2.27148,-3.539 -1.33035,-0.9043 -3.24101,-0.70952 -4.26328,0.43461 -0.9089,1.01723 -1.19685,2.44846 -0.79494,3.95114 0.63366,2.36921 1.96022,3.50025 4.10724,3.50189 1.13885,8.8e-4 1.39705,-0.11075 2.18238,-0.94344 z m 13.98844,1.51838 c -2.45206,-1.16804 -3.31252,-3.35426 -2.45273,-6.23179 0.43626,-1.46009 2.16936,-3.16812 3.57722,-3.52547 3.18273,-0.80786 6.15155,1.25565 6.15155,4.2757 0,3.99653 -4.0261,7.02968 -7.27604,5.48156 z m 4.16987,-0.8144 c 2.20978,-0.84016 2.3173,-5.47441 0.16896,-7.28212 -1.5014,-1.26334 -4.25898,-1.12388 -5.16658,0.26129 -1.32425,2.02107 -0.22241,6.1607 1.8645,7.00494 0.74571,0.30167 2.35992,0.30986 3.13312,0.0159 z m 14.51536,0.72492 c -1.55428,-0.76934 -2.67889,-2.52406 -2.67535,-4.17429 0.003,-1.31398 0.91969,-3.56172 1.75553,-4.30373 1.3568,-1.20449 4.02603,-1.62094 5.75613,-0.89806 0.48546,0.20284 1.22578,0.81865 1.64514,1.36847 0.67803,0.88894 0.76249,1.21188 0.76249,2.91569 0,1.69899 -0.0901,2.046 -0.79539,3.06331 -0.89541,1.29154 -3.1513,2.60261 -4.47758,2.60227 -0.44685,-1.2e-4 -1.33379,-0.25826 -1.97097,-0.57366 z m 4.47447,-0.88582 c 2.37766,-1.22954 1.93795,-5.96306 -0.69351,-7.46565 -1.88868,-1.07845 -4.05196,-0.56525 -4.75995,1.1292 -1.04025,2.48966 0.18923,5.66569 2.53438,6.5469 0.76437,0.28722 2.14986,0.18733 2.91908,-0.21045 z m 6.97776,0.99667 c -2.19993,-1.25672 -2.52229,-1.81756 -2.53244,-4.40592 -0.009,-2.2969 0.4543,-3.30395 2.09856,-4.56142 0.84869,-0.64905 1.27281,-0.76876 3.00639,-0.84857 2.50273,-0.11523 3.14107,0.17113 3.14107,1.40908 0,1.15536 -0.3559,1.36849 -0.89959,0.53871 -1.51137,-2.30664 -5.09289,-1.6316 -6.00489,1.1318 -0.63491,1.92378 0.31304,4.62042 1.98197,5.6381 1.01958,0.62173 1.5813,0.63101 2.57747,0.0426 1.15573,-0.68271 1.28586,-1.60115 0.33469,-2.36225 l -0.76777,-0.61435 1.78593,-0.001 c 1.72784,-10e-4 2.06151,0.14502 1.53588,0.67338 -0.13753,0.13824 -0.28635,0.95632 -0.33072,1.81795 -0.0493,0.95644 -0.20949,1.60909 -0.41141,1.67569 -0.1819,0.06 -0.33073,-0.0832 -0.33073,-0.31813 0,-0.72302 -0.65891,-0.73201 -1.98472,-0.0271 -1.49722,0.79607 -2.10626,0.83638 -3.19969,0.21176 z m -100.9891,0.0346 c -0.0901,-0.0901 0.009,-0.33671 0.22049,-0.54806 0.28143,-0.28143 0.38428,-1.04942 0.38428,-2.86961 0,-2.30631 -0.0429,-2.50836 -0.59532,-2.80491 l -0.59531,-0.31958 0.79375,-0.33926 c 1.42043,-0.6071 1.71979,-0.48609 1.71979,0.69521 0,1.20584 0.30381,1.36653 0.74653,0.39487 0.42834,-0.9401 1.95835,-1.63179 2.7807,-1.2571 0.76064,0.34657 0.97069,1.22037 0.97069,4.03803 0,1.83171 0.0637,2.0944 0.59531,2.45364 l 0.59531,0.40231 -0.7276,0.18781 c -0.40018,0.1033 -0.99549,0.12061 -1.32292,0.0385 -0.57086,-0.14319 -0.59531,-0.26535 -0.59531,-2.97384 0,-2.373 -0.0721,-2.87042 -0.45113,-3.11165 -0.35793,-0.22781 -0.59543,-0.15231 -1.14962,0.36547 -1.06224,0.99246 -1.44196,1.9338 -1.44196,3.57466 0,1.26778 0.0794,1.51388 0.52619,1.63072 0.28941,0.0757 0.46098,0.24312 0.38126,0.3721 -0.16313,0.26395 -2.58157,0.32427 -2.83513,0.0707 z m 11.88626,-0.0414 c -0.0697,-0.11285 0.13159,-0.45427 0.44741,-0.7587 0.31582,-0.30443 1.32105,-2.44452 2.23385,-4.75575 2.01336,-5.09791 2.06624,-5.19365 2.38919,-4.32556 0.13351,0.35887 0.86519,2.3789 1.62597,4.48895 1.40079,3.88517 2.23752,5.24566 3.03743,4.93871 0.72733,-0.2791 0.94507,-1.41747 0.94507,-4.94093 0,-3.10379 -0.047,-3.44027 -0.52748,-3.77682 -0.68203,-0.47771 -0.41849,-0.71887 0.78559,-0.71887 1.19831,0 1.4266,0.18928 3.19106,2.64583 3.60675,5.02143 3.92646,5.14239 3.50018,1.32426 -0.20618,-1.84665 -0.40071,-2.55098 -0.83114,-3.00915 -0.30908,-0.32899 -0.56196,-0.6798 -0.56196,-0.77956 0,-0.29848 2.86473,-0.20477 3.05301,0.0999 0.0956,0.15469 -0.01,0.4843 -0.23451,0.73247 -0.29781,0.32908 -0.45121,1.30929 -0.56671,3.62135 -0.0871,1.74357 -0.22414,3.70401 -0.30453,4.35652 l -0.14616,1.18638 -0.70211,-0.81624 c -0.38616,-0.44894 -1.76819,-2.26273 -3.07118,-4.03066 -1.30298,-1.76792 -2.46384,-3.21441 -2.57968,-3.21441 -0.31553,0 -0.25387,5.35325 0.0724,6.28931 0.15569,0.44661 0.45335,0.87736 0.66146,0.95722 0.20811,0.0799 0.37839,0.268 0.37839,0.41809 0,0.29709 -3.97016,0.37626 -5.57268,0.11113 -0.84708,-0.14015 -0.93176,-0.22882 -0.83675,-0.87623 0.0582,-0.39617 -0.0772,-1.15812 -0.3008,-1.69324 -0.39974,-0.95671 -0.43125,-0.97294 -1.88873,-0.97294 -1.44125,0 -1.4928,0.0254 -1.86558,0.91754 -0.53545,1.2815 -0.48738,2.01522 0.14281,2.18002 0.28941,0.0757 0.46098,0.24312 0.38126,0.3721 -0.17811,0.2882 -2.67925,0.31388 -2.85512,0.0293 z m 5.23073,-4.25351 c 0.17411,-0.28172 -0.64355,-3.21421 -0.89621,-3.21421 -0.20677,0 -0.67901,0.95166 -1.21444,2.44739 l -0.35518,0.99219 h 1.16327 c 0.6398,0 1.22595,-0.10142 1.30256,-0.22537 z m 16.82528,4.28943 c 0,-0.0931 0.20059,-0.31595 0.44577,-0.49522 0.50241,-0.36737 0.84142,-2.70841 0.86356,-5.96332 0.015,-2.20503 -0.20771,-2.6326 -1.37117,-2.6326 -0.58575,0 -0.87803,0.21704 -1.33615,0.99218 l -0.58639,0.99219 -0.0828,-1.15475 c -0.0456,-0.63511 -0.0305,-1.29101 0.0334,-1.45756 0.0838,-0.21839 0.9552,-0.24998 3.12554,-0.11331 3.12261,0.19664 4.46456,0.0903 4.46456,-0.35372 0,-0.14255 0.11906,-0.18559 0.26458,-0.0957 0.44429,0.27459 0.23453,3.05283 -0.2293,3.03698 -0.0922,-0.003 -0.34617,-0.3901 -0.56445,-0.85989 -0.32941,-0.70897 -0.56554,-0.86813 -1.38906,-0.93629 l -0.99219,-0.0821 v 4.10771 c 0,3.83691 0.0349,4.12637 0.52917,4.3909 0.98339,0.5263 0.53763,0.79375 -1.32292,0.79375 -1.01865,0 -1.85208,-0.0762 -1.85208,-0.16927 z m 6.66216,-0.006 c -0.25596,-0.10665 -0.20293,-0.24805 0.19844,-0.52918 0.51025,-0.3574 0.54773,-0.64108 0.54773,-4.14623 0,-2.89242 -0.0905,-3.89178 -0.39129,-4.32122 -0.3603,-0.5144 -0.34458,-0.57116 0.19844,-0.71672 1.09029,-0.29225 4.17065,-0.16862 5.06031,0.2031 1.59211,0.66523 1.48673,2.36715 -0.24477,3.95341 l -0.93792,0.85925 1.2946,1.84343 c 0.71202,1.01389 1.49029,2.00586 1.72948,2.20437 0.5829,0.48377 0.54904,0.8253 -0.0818,0.8253 -1.10193,0 -1.91008,-0.68432 -3.19125,-2.70229 -0.72895,-1.14816 -1.44302,-2.01486 -1.58682,-1.92598 -0.14381,0.0889 -0.26146,0.988 -0.26146,1.99806 0,1.68456 0.0456,1.83646 0.55121,1.83646 0.32277,0 0.506,0.13707 0.44212,0.33073 -0.1125,0.34107 -2.66838,0.56193 -3.327,0.28751 z m 3.64894,-5.27626 c 0.85436,-0.34184 1.11935,-0.6181 1.35846,-1.41619 0.35925,-1.19906 0.0118,-2.04142 -0.94065,-2.28047 -1.41704,-0.35565 -1.59467,-0.13614 -1.67807,2.0737 -0.0425,1.12621 -0.0151,2.04765 0.0608,2.04765 0.0759,0 0.61569,-0.19111 1.19946,-0.42469 z m 16.75881,5.26718 c -0.57292,-0.11134 -0.57362,-0.11795 -0.0661,-0.62543 0.46153,-0.46152 0.5129,-0.90731 0.5129,-4.45078 0,-3.71538 -0.0299,-3.94571 -0.52917,-4.07628 -0.29104,-0.0761 -0.52916,-0.26859 -0.52916,-0.42773 0,-0.39746 4.62314,-0.35269 5.81515,0.0563 2.58345,0.88643 0.77088,4.946 -2.20836,4.946 h -0.96096 v 1.84278 c 0,1.63477 0.0665,1.87838 0.58941,2.15822 0.57252,0.3064 0.57442,0.3213 0.0661,0.51988 -0.55653,0.21743 -1.73579,0.24243 -2.68981,0.057 z m 4.29524,-5.7565 c 1.32704,-1.32705 0.58932,-3.31932 -1.22913,-3.31932 -1.07732,0 -1.39305,0.5794 -1.18213,2.16936 0.10011,0.75466 0.24143,1.46825 0.31405,1.58575 0.27188,0.43992 1.47058,0.19083 2.09721,-0.43579 z m 14.75174,5.77028 c -0.22541,-0.0916 -0.24459,-0.32073 -0.0661,-0.79008 0.13823,-0.36358 0.25133,-2.26065 0.25133,-4.21571 0,-3.15035 -0.0577,-3.61232 -0.50712,-4.06176 -0.68024,-0.68024 -0.46553,-0.81654 1.27882,-0.81175 1.75739,0.005 2.63855,0.38958 1.5296,0.66791 l -0.7138,0.17915 v 4.20465 4.20465 l 0.85989,-0.004 c 1.46138,-0.006 1.95562,-0.26548 2.56199,-1.34437 0.67171,-1.19516 1.13123,-1.14351 0.90284,0.10147 -0.34265,1.86782 -0.63151,2.04254 -3.33863,2.01938 -1.34272,-0.0115 -2.58417,-0.079 -2.75878,-0.14993 z m 28.92165,-0.0466 c -0.0739,-0.11957 0.0977,-0.41606 0.38126,-0.65887 0.46531,-0.39842 0.51561,-0.80122 0.51561,-4.12934 0,-3.04584 -0.0746,-3.76243 -0.42837,-4.11623 -0.54093,-0.54093 -0.50169,-0.56847 1.04672,-0.73494 1.21708,-0.13085 1.2701,-0.10988 1.08161,0.42781 -0.10901,0.31098 -0.24708,2.25341 -0.30683,4.31652 -0.10055,3.47226 -0.0695,3.79023 0.4177,4.27743 0.28948,0.28948 0.45687,0.59578 0.37198,0.68066 -0.23777,0.23777 -2.9278,0.1827 -3.07968,-0.063 z m 3.96335,-0.009 c -0.0769,-0.12437 0.14167,-0.49051 0.48563,-0.81365 0.57667,-0.54174 0.98136,-1.41801 3.33839,-7.22846 0.45749,-1.12778 0.92767,-2.05052 1.04485,-2.05052 0.11717,0 0.54202,0.92274 0.94411,2.05052 1.87597,5.26186 2.50332,6.78498 3.022,7.33709 l 0.5593,0.59535 -0.83227,0.16645 c -1.16723,0.23345 -2.17558,-0.0549 -1.97943,-0.56606 0.0856,-0.22304 -0.0377,-0.98765 -0.27405,-1.69912 l -0.42966,-1.29358 -1.6074,0.0781 -1.60741,0.0781 -0.38008,1.14339 c -0.3626,1.0908 -0.35232,1.17295 0.22356,1.78594 l 0.60364,0.64254 h -1.48572 c -0.81714,0 -1.5486,-0.10175 -1.62546,-0.22612 z m 5.48143,-4.20565 c 0.0619,-0.10914 -0.14277,-0.95184 -0.45473,-1.87268 l -0.56719,-1.67424 -0.48838,1.01278 c -0.62908,1.30459 -0.94451,2.38749 -0.75162,2.58037 0.22428,0.22429 2.13068,0.18533 2.26192,-0.0462 z m -8.81249,-6.71564 c 0,-0.54075 1.09318,-2.08175 1.47678,-2.08175 0.57854,0 0.44642,0.66862 -0.30968,1.5672 -0.70465,0.83743 -1.1671,1.04131 -1.1671,0.51455 z m -114.44091,-7.6374 c -1.54938,-0.76695 -2.10029,-1.84541 -2.10455,-4.11986 -0.003,-1.60851 0.10018,-2.02714 0.73722,-2.99071 0.40739,-0.6162202 1.29391,-1.4712272 1.97003,-1.9000112 1.02942,-0.652837 1.50337,-0.779606 2.9147,-0.779606 2.24803,0 2.70893,0.271678 2.70893,1.596809 0,0.576968 -0.0675,1.0490282 -0.15006,1.0490282 -0.0825,0 -0.54308,-0.41672 -1.02343,-0.9260452 -0.75647,-0.802094 -1.03916,-0.926042 -2.11204,-0.926042 -1.70151,0 -2.73742,0.59966 -3.34404,1.9357772 -1.595,3.51311 1.33326,7.64048 4.38743,6.18405 1.41705,-0.67575 1.47236,-2.0038 0.10158,-2.43887 -1.07551,-0.34135 -0.42277,-0.65387 1.36571,-0.65387 1.70089,0 1.83318,0.0378 1.4552,0.41577 -0.28944,0.28945 -0.41577,0.91917 -0.41577,2.07257 0,1.91561 -0.19961,2.26808 -0.81924,1.44661 l -0.44263,-0.5868 -1.33634,0.57488 c -1.65654,0.71263 -2.52574,0.72297 -3.8927,0.0463 z m 8.23987,0.31118 c -0.0739,-0.11957 0.0977,-0.41606 0.38126,-0.65887 0.46528,-0.39839 0.51561,-0.80119 0.51561,-4.1266 0,-3.9153232 -0.0947,-4.5221472 -0.70538,-4.5221472 -0.2113,0 -0.3106,-0.119062 -0.22066,-0.264583 0.2179,-0.352574 4.60063,-0.339601 5.62255,0.01664 1.48314,0.517025 1.51355,2.2187582 0.0677,3.7873282 l -1.05664,1.14632 1.01898,1.55975 c 1.38212,2.11562 2.28164,2.92768 2.78252,2.51199 0.38217,-0.31717 1.8932,-3.7474 3.26549,-7.4130402 0.40415,-1.079581 0.87091,-2.007988 1.03723,-2.063123 0.29198,-0.09679 0.51457,0.415888 2.6096,6.0103832 0.5177,1.38245 1.1745,2.83463 1.45954,3.22707 0.67669,0.93162 0.34465,1.11557 -1.54729,0.85723 -0.82573,-0.11275 -1.29298,-0.25314 -1.03832,-0.31197 0.56989,-0.13165 0.58371,-0.59007 0.0559,-1.85333 -0.50365,-1.2054 -0.77247,-1.38173 -2.10641,-1.38173 -1.45442,0 -1.75576,0.26349 -1.91477,1.67427 -0.10877,0.96499 -0.048,1.25293 0.29187,1.38336 0.92472,0.35485 0.0366,0.63843 -1.99949,0.63843 -2.07921,0 -2.15788,-0.0234 -2.96095,-0.88171 -0.45374,-0.48494 -1.2516,-1.6555 -1.77302,-2.60125 l -0.94803,-1.71955 1.07819,-0.51965 c 1.35896,-0.65496 1.76557,-1.60677 1.11233,-2.6037562 -0.25011,-0.381706 -0.7385,-0.823304 -1.08533,-0.981328 -1.20665,-0.549789 -1.37781,-0.222538 -1.58054,3.0220142 -0.22989,3.67931 -0.0103,5.50632 0.68378,5.68781 0.27008,0.0706 0.42584,0.23394 0.34612,0.36292 -0.18259,0.29545 -3.21036,0.31073 -3.39182,0.0171 z m 13.59687,-4.22916 c 0,-0.61626 -1.15078,-3.50149 -1.32176,-3.31392 -0.18585,0.20389 -1.32407,3.13074 -1.32407,3.40476 0,0.0673 0.59531,0.12237 1.32292,0.12237 0.7276,0 1.32291,-0.0959 1.32291,-0.21321 z m 4.50633,4.19399 c 0.005,-0.0794 0.18323,-0.37544 0.39688,-0.65791 0.30104,-0.39801 0.38846,-1.39729 0.38846,-4.4403 0,-3.7881462 -0.0203,-3.9342032 -0.5744,-4.1391912 -1.16942,-0.432596 0.16762,-0.693065 3.48482,-0.678878 4.51204,0.0193 5.69069,0.657457 5.99741,3.2471792 0.3494,2.95016 -1.30623,5.58178 -4.09426,6.50781 -1.2745,0.42333 -5.62149,0.54855 -5.59891,0.16129 z m 5.97608,-0.97069 c 1.40172,-0.66516 2.00772,-1.72886 2.15462,-3.78202 0.22232,-3.1072 -1.05809,-4.5169262 -4.10422,-4.5187482 l -1.65364,-9.89e-4 v 3.9498472 c 0,3.238 0.0749,4.02479 0.41577,4.36563 0.53787,0.53787 2.0387,0.53141 3.18747,-0.0137 z m 7.59253,0.8525 c -1.30549,-0.59338 -1.60779,-1.49142 -1.82075,-5.40883 -0.16558,-3.0460012 -0.25544,-3.5375992 -0.68908,-3.7696782 -0.27428,-0.146785 -0.42879,-0.379971 -0.34336,-0.518191 0.17222,-0.278663 2.04243,-0.3327 2.96415,-0.08564 l 0.59111,0.158438 -0.52496,0.66738 c -0.44938,0.571296 -0.52496,1.075585 -0.52496,3.5026352 0,3.2917 0.29306,4.36603 1.33846,4.90663 1.19016,0.61546 2.01252,0.47744 3.09719,-0.51981 l 0.9883,-0.90864 -0.0421,-3.24991 c -0.0383,-2.9496982 -0.0933,-3.2912922 -0.59532,-3.6978332 -0.30423,-0.246354 -0.55315,-0.518129 -0.55315,-0.603944 0,-0.08581 0.65484,-0.156027 1.45521,-0.156027 0.80036,0 1.45521,0.04499 1.45521,0.09998 0,0.05499 -0.16287,0.501473 -0.36192,0.992188 -0.19906,0.490714 -0.4337,2.0485462 -0.52142,3.4618462 -0.2559,4.12272 -0.96397,5.20569 -3.52889,5.39734 -1.00592,0.0752 -1.8335,-0.0179 -2.38367,-0.26793 z m 7.58965,0.27051 c 0,-0.0551 0.41671,-0.79227 0.92604,-1.63808 0.50932,-0.84582 0.92604,-1.64326 0.92604,-1.77209 0,-0.48096 2.42335,-6.4252262 2.75757,-6.7640762 0.3695,-0.374617 0.31986,-0.489629 2.64953,6.1386962 1.01113,2.87683 1.506,3.60662 2.44566,3.60662 0.93421,0 1.14307,-0.8948 1.14307,-4.89702 0,-3.2888462 -0.0391,-3.5670472 -0.55216,-3.9263942 l -0.55216,-0.38675 0.53833,-0.17086 c 0.89551,-0.284224 5.65216,-0.223732 6.7963,0.08643 0.58902,0.159674 1.42245,0.657526 1.85208,1.106337 0.69756,0.7286962 0.77963,0.9910462 0.76693,2.4516162 -0.0224,2.57637 -1.25961,4.46164 -3.74555,5.70753 -0.92832,0.46525 -1.58964,0.55789 -3.96875,0.55597 -1.57015,-0.001 -3.46487,-0.0756 -4.2105,-0.16519 -1.13887,-0.13684 -1.33566,-0.23946 -1.23048,-0.64168 0.18492,-0.70714 -0.42527,-2.33047 -0.9895,-2.63244 -0.59572,-0.31882 -2.37674,-0.33878 -2.86054,-0.032 -0.19293,0.12232 -0.4148,0.6996 -0.49303,1.28284 -0.11725,0.87418 -0.0443,1.12904 0.41526,1.45093 0.30662,0.21477 0.47887,0.4691 0.38278,0.56519 -0.18134,0.18134 -2.99692,0.2513 -2.99692,0.0745 z m 16.6962,-1.37114 c 1.43642,-1.27832 1.96312,-4.12512 1.1426,-6.1758 -0.53346,-1.3332492 -1.6325,-1.8778272 -3.78973,-1.8778272 h -1.61366 v 3.8538572 c 0,4.83469 0.0619,4.97479 2.1321,4.82505 1.03896,-0.0752 1.74285,-0.28191 2.12869,-0.62528 z m -11.29359,-2.992 c 0.0782,-0.12652 -0.13215,-1.04326 -0.46743,-2.03718 l -0.60959,-1.8071402 -0.69973,1.8105902 c -0.38484,0.99582 -0.6367,1.91255 -0.55968,2.03718 0.1835,0.29689 2.1526,0.29399 2.33643,-0.003 z m 18.09336,3.92348 c -0.5379,-0.28408 -1.3118,-0.95452 -1.7198,-1.48986 -1.5288,-2.00598 -0.66097,-5.67107 1.74284,-7.3605342 0.98989,-0.695717 1.35528,-0.795046 2.89596,-0.787256 2.19498,0.0111 3.23402,0.530433 4.13411,2.0663202 1.10007,1.87713 0.81594,4.05344 -0.80697,6.18119 -1.40481,1.84179 -4.20918,2.46593 -6.24614,1.39014 z m 4.76422,-0.78981 c 3.04656,-1.85744 1.55138,-7.3420212 -2.19305,-8.0444822 -2.06912,-0.38817 -4.11156,1.7906222 -3.75254,4.0030422 0.57868,3.56593 3.48511,5.54155 5.94559,4.04144 z m 4.48199,1.18253 c -0.27113,-0.28092 -0.25212,-2.69883 0.0226,-2.86859 0.12154,-0.0751 0.41449,0.26922 0.651,0.76519 0.78602,1.6483 2.16539,2.08582 3.22749,1.02372 0.7844,-0.78441 0.49255,-1.83275 -0.81345,-2.92187 -0.66653,-0.55586 -1.5598,-1.30831 -1.98503,-1.67211 -1.53808,-1.31589 -1.03113,-3.5557592 0.99653,-4.4029692 1.80566,-0.754453 3.25872,-0.04466 3.25872,1.591835 0,0.9470942 -0.47148,1.1105642 -0.84413,0.292669 -0.38219,-0.838813 -1.63225,-1.539725 -2.34347,-1.313992 -0.57901,0.183771 -0.91245,1.149852 -0.66546,1.9280472 0.0899,0.28327 0.88291,1.0197 1.76222,1.6365 2.52231,1.7693 2.93216,3.29206 1.35769,5.04433 -0.63726,0.70921 -0.93957,0.82115 -2.57414,0.95321 -1.01864,0.0823 -1.94138,0.0571 -2.05052,-0.056 z M 345.2686,-0.49821321 c -2.87824,-1.32672899 -3.39202,-6.26244599 -0.89119,-8.56148799 0.98373,-0.904356 2.4495,-1.4016908 4.13111,-1.4016908 2.05616,0 2.71321,0.4647918 2.71321,1.9193008 v 1.095545 l -1.08442,-1.095253 c -1.22869,-1.240978 -2.21922,-1.5636498 -3.50123,-1.140548 -2.27754,0.751655 -3.19993,3.382237 -2.07648,5.92197 1.00052,2.261855 3.62238,3.01838499 5.66063,1.633361 1.20727,-0.820361 1.38919,-0.830735 0.87767,-0.05005 -0.97899,1.49411999 -4.21081,2.42489399 -5.8293,1.67885299 z m 10.39966,-0.01451 c -1.51636,-0.408228 -1.95263,-0.75308899 -2.6284,-2.07770999 -0.88713,-1.738932 -0.90078,-3.292032 -0.0422,-4.806488 0.40569,-0.715635 1.18294,-1.658242 1.72721,-2.094683 1.87279,-1.5017548 5.39713,-1.1770378 6.92437,0.63798 1.87149,2.224142 0.60234,6.590843 -2.34203,8.05808399 -1.46613,0.730606 -1.86148,0.761332 -3.63893,0.282817 z m 3.72968,-0.93963799 c 3.28788,-1.677348 1.80641,-7.64978 -2.01475,-8.122316 -1.1925,-0.147468 -2.68863,0.568724 -3.181,1.522732 -0.4027,0.780276 -0.43287,3.116922 -0.0532,4.121767 0.55065,1.457441 2.43936,2.95446199 3.76402,2.98342999 0.26045,0.0057 0.92868,-0.22182899 1.48494,-0.50561299 z m 7.56649,1.11836399 c -2.92575,-0.101414 -3.23075,-0.187558 -2.66549,-0.75282499 0.58809,-0.588092 0.61585,-7.814539 0.0323,-8.398131 -0.21135,-0.211352 -0.31057,-0.457981 -0.22049,-0.5480658 0.2707,-0.270695 2.94208,-0.184347 3.11831,0.1007938 0.0899,0.145521 -0.0198,0.264583 -0.24393,0.264583 -0.55805,0 -0.65387,0.625401 -0.73992,4.829216 l -0.0745,3.63859 0.83204,0.155942 c 1.00992,0.18927999 1.72496,-0.161726 2.47487,-1.214876 0.80782,-1.134475 1.14158,-1.014658 0.91977,0.330191 -0.18216,1.10443999 -0.55784,1.83894199 -0.88564,1.73152999 -0.0913,-0.02992 -1.2376,-0.09155 -2.54729,-0.136948 z m 7.27605,2.84e-4 c -2.7932,-0.103535 -3.0935,-0.192813 -2.5332,-0.75310899 0.34034,-0.340346 0.41653,-1.112055 0.41653,-4.21909 0,-3.587633 -0.0321,-3.825012 -0.56721,-4.199846 l -0.56721,-0.397289 0.63336,-0.1299968 c 0.34834,-0.0715 1.79421,-0.193936 3.21304,-0.272083 l 2.57969,-0.142087 v 0.7694368 c 0,0.42319 -0.13975,1.10461 -0.31054,1.514265 l -0.31054,0.744829 -0.15248,-0.914895 c -0.15999,-0.959927 -0.65108,-1.251437 -2.20301,-1.30769 l -0.7276,-0.02637 v 1.876405 1.876405 l 1.25677,-0.09047 c 0.69122,-0.04976 1.28654,-0.0012 1.32292,0.10797 0.19447,0.583418 -0.0546,0.727604 -1.25677,0.727604 h -1.32292 v 1.799167 c 0,1.046574 0.13281,1.931977 0.3175,2.116667 0.59052,0.59052399 1.57491,0.34875599 2.47776,-0.608542 1.03701,-1.099552 1.17349,-1.131771 1.17349,-0.277033 0,0.853251 -0.53773,2.01109399 -0.90237,1.94296999 -0.15854,-0.02962 -1.30029,-0.09137 -2.53721,-0.137218 z m 6.74687,-0.409682 c -2.66534,-1.49103599 -3.01422,-6.12134399 -0.6266,-8.31630599 1.33401,-1.2263768 3.66878,-1.7060668 6.01749,-1.2363258 0.79035,0.158072 0.82682,0.22225 0.82682,1.4552078 0,1.489876 -0.21263,1.610253 -0.8539,0.483425 -0.89408,-1.571044 -3.2813,-1.9556728 -4.78701,-0.771282 -2.17107,1.707768 -1.7577,6.304461 0.68032,7.565214 0.95175,0.492165 2.40197,0.340432 3.14132,-0.328669 0.68239,-0.617558 0.66182,-1.960947 -0.0328,-2.142598 -0.93499,-0.244505 -0.56722,-0.534671 0.85989,-0.678432 1.63945,-0.165152 2.00468,0.06772 1.41859,0.904492 -0.31723,0.452907 -0.38625,0.931127 -0.26562,1.840478 0.18015,1.35803399 -0.252,1.98867999 -0.8254,1.20451299 -0.41599,-0.56889799 -0.87804,-0.55148099 -2.28305,0.08606 -1.47596,0.669735 -1.97313,0.659734 -3.27004,-0.06578 z m 16.47403,0.348882 c -3.69311,-1.17107499 -4.75938,-5.03802999 -2.23397,-8.10178799 3.51643,-4.2660398 10.34591,-0.974854 8.60534,4.14699 -0.98009,2.884045 -3.94477,4.72426499 -6.37137,3.95479799 z m 3.22721,-0.93346699 c 1.40383,-0.725949 1.8623,-1.605752 1.8623,-3.573715 0,-2.110641 -0.6052,-3.226825 -2.25678,-4.162253 -1.46943,-0.832258 -2.82013,-0.788656 -3.83851,0.123911 -1.78005,1.595098 -1.5647,4.821724 0.44927,6.731703 1.31739,1.24935599 2.52624,1.53061899 3.78372,0.880354 z m 9.0047,0.217329 c -0.79081,-0.900682 -0.84214,-1.075751 -0.73788,-2.517097 0.17559,-2.427423 1.48161,-3.816731 3.85184,-4.097449 l 1.38531,-0.164069 v -1.04625 c 0,-0.823734 -0.11254,-1.0756798 -0.52917,-1.1846288 -0.53381,-0.139596 -0.69698,-0.478905 -0.33073,-0.687757 0.10914,-0.06224 0.64492,-0.19372 1.19063,-0.292187 l 0.99218,-0.179031 v 4.8936338 c 0,4.246311 0.057,4.925528 0.43086,5.13475 0.49856,0.27900999 0.24934,0.49667099 -0.96864,0.84598299 l -0.78513,0.225173 -0.008,-1.23830199 -0.008,-1.238301 -0.58747,0.661458 c -0.90661,1.02078799 -2.06421,1.85208399 -2.57908,1.85208399 -0.25635,0 -0.84855,-0.435605 -1.316,-0.96800999 z m 3.22681,-1.082511 c 0.37325,-0.400182 0.81224,-0.987668 0.97555,-1.305523 0.33611,-0.654225 0.39063,-2.436937 0.089,-2.911258 -0.34929,-0.549323 -1.59147,-0.8834 -2.29299,-0.616683 -1.50233,0.571184 -2.09439,3.669455 -0.93669,4.901763 0.79756,0.848969 1.3251,0.832328 2.1651,-0.0683 z m 6.0429,1.72277699 c -2.38742,-1.24728799 -2.47643,-5.37215999 -0.14698,-6.81183599 1.01758,-0.6289 1.75039,-0.671415 2.74122,-0.159035 0.91823,0.474836 1.5817,1.633061 1.17084,2.043929 -0.34568,0.345681 -2.18479,0.729105 -3.57458,0.745246 -0.76456,0.0089 -0.99197,0.117753 -0.9912,0.474544 0.002,0.761585 0.97855,2.128479 1.83939,2.573637 0.72335,0.37406 0.88465,0.375561 1.58242,0.01473 0.42734,-0.220984 0.85108,-0.521698 0.94166,-0.668253 0.31512,-0.509878 0.69102,-0.284736 0.40788,0.244301 -0.70328,1.31410599 -2.82808,2.13966599 -3.97065,1.54273999 z m 2.4853,-5.23466899 c 0.28544,-0.285436 -0.79692,-1.581337 -1.32076,-1.581337 -0.43393,0 -1.96623,1.451366 -1.96623,1.862373 0,0.384219 2.86685,0.139105 3.28699,-0.281036 z m -31.95076,5.12086299 c -0.0973,-0.09733 0.0317,-0.407657 0.28663,-0.68961299 0.39347,-0.435098 0.4636,-1.052262 0.4636,-4.079885 0,-3.359821 -0.034,-3.594731 -0.58406,-4.040042 -0.32124,-0.260041 -0.50975,-0.547114 -0.41893,-0.6379398 0.0908,-0.09082 0.9192,-0.165137 1.84083,-0.165137 1.63773,0 2.20304,0.3261368 1.14653,0.6614578 -0.49797,0.15805 -0.52916,0.400324 -0.52916,4.109563 0,3.688967 0.0344,3.960017 0.53657,4.228778 0.29512,0.157942 0.46669,0.40025699 0.38126,0.53847599 -0.17529,0.283637 -2.85031,0.347309 -3.12327,0.07434 z"
       id="path2" /></g></svg>
